<?xml version="1.0" encoding="utf-8"?>
<!-- Generator: Adobe Illustrator 23.0.1, SVG Export Plug-In . SVG Version: 6.00 Build 0)  -->
<svg version="1.1" id="Layer_1" xmlns="http://www.w3.org/2000/svg" xmlns:xlink="http://www.w3.org/1999/xlink" x="0px" y="0px"
	 viewBox="0 0 453.8 326" style="enable-background:new 0 0 453.8 326;" xml:space="preserve">
<style type="text/css">
	.st0{fill:none;stroke:#1D1D1B;stroke-miterlimit:10;}
</style>
<title>Artboard 2</title>
<path class="st0" d="M390.4,12.9h16.5l9,12l-5.4,4.6l-0.1,0l-2.3,2.4l-18.3-18.3L390.4,12.9L390.4,12.9z"/>
<path class="st0" d="M410.9,12.9h17.7v0l-10.7,7.1l-0.8-1.1l-0.9,0.6L410.9,12.9L410.9,12.9z"/>
<path class="st0" d="M385.5,13.1h0.3l5.3,5.4l-0.2,0.3l5.6,6.9l0.8-0.5l1.9,2.5l1.1-0.8l5.5,6.1l-1.7,1.2l3.5,4.7l-6.5,5.2l0.3,0.5
	l-5.4,3.2l-20.7-28.1l-0.5,0.2l-3.4-5.9L385.5,13.1L385.5,13.1L385.5,13.1z"/>
<path class="st0" d="M341.7,66.5l-9,3.1l-1.3-1.9l-1.9,1.2l-14.6-22.2l59-23.3l3.8,3.6l0.7-0.4l15.1,21.2l-24.9-5.6l-1.7,1.1L370,47
	l-1.1,1l-0.5,7.7l-4.7,2.9l-6.3-1l-0.3,1.3l-11.4,4.1l0.3,1.6L341.7,66.5L341.7,66.5L341.7,66.5L341.7,66.5z"/>
<path class="st0" d="M419,30.7l0.2,0l0.2,0.3l-0.2,0.2l-0.2,0l-0.1-0.1L419,30.7L419,30.7L419,30.7z"/>
<path class="st0" d="M410.3,30.8l0.2,0.2l0,0.2l-0.3,0.2l-0.2-0.2L410.3,30.8L410.3,30.8L410.3,30.8L410.3,30.8z"/>
<path class="st0" d="M417.5,32.7l0.2,0l0.1,0.2l-0.2,0.3l-0.3-0.2v-0.1L417.5,32.7L417.5,32.7z"/>
<path class="st0" d="M406.8,34.4l0.3,0.2l-0.2,0.3h-0.1l-0.2-0.3L406.8,34.4L406.8,34.4L406.8,34.4z"/>
<path class="st0" d="M415.9,35.7l0.2,0l0.1,0.3l-0.1,0.2l-0.3-0.3L415.9,35.7L415.9,35.7z"/>
<path class="st0" d="M407.3,36.2l0.2,0l0.1,0.3l-0.1,0.2l-0.3,0l-0.1-0.3L407.3,36.2L407.3,36.2L407.3,36.2z"/>
<path class="st0" d="M414.3,37.8l0.2,0.2l0,0.2l-0.3,0.2l-0.2-0.2l0-0.2L414.3,37.8L414.3,37.8L414.3,37.8z"/>
<path class="st0" d="M416.2,40.1l0.8-0.3l14.5,10.6l-9.3,4.4l0.1,0.4l0.1,0l2.4,4.9l-0.3,0.2l1.7,2.7l-1.2,0.9l0.1,0.3l-4.7,4.7
	l-0.2-0.3l0-0.1l-15.1,3l-5.3-6.1h0l-28.3,44.4l-5.7-8.9l1.9-1.3l-1.8-2.6l-1.6,1l-3.3-5.6l8.7-5.5l-0.6-1.2l1.3-0.8l-0.3-0.1
	l0.1-0.4l0.3,0.2l0,0.3l2.3-1.5l-0.1-0.3l0.2-0.2l0.3,0.1l0.1,0.2l36.5-25.1l10.5,10.4l3.9-4.1l-2.8-2.4l-0.1,0l-2.3-5l2.9-1.4
	l-0.1-0.5l-3.1,1.4l-1.3-2.6l-0.3,0.1l-4.1-8.9l0.3-0.2l-1.3-2.7l0.7-0.3l-0.2-0.5l1.1-0.6l0.3,0.2l0,0.2l-1,0.7v0l2.5-1.2l-0.2-0.2
	l0.9-0.7l0.3,0.2L416.2,40.1L416.2,40.1z"/>
<path class="st0" d="M377,48.5l0.3,0.2l-0.1,0.3l-0.4-0.1L377,48.5L377,48.5z"/>
<path class="st0" d="M380,49.4l0.3,0.2l-0.2,0.3l-0.3-0.1l-0.1-0.2L380,49.4L380,49.4L380,49.4z"/>
<path class="st0" d="M386,50.2l0.2,0l-0.4,0.3L386,50.2L386,50.2L386,50.2z"/>
<path class="st0" d="M389.8,50.8l0.3,0.2l-0.2,0.3h-0.1l-0.2-0.3L389.8,50.8L389.8,50.8z"/>
<path class="st0" d="M393.4,51.6l0.2,0l0.1,0.2l-0.2,0.3l-0.3-0.3L393.4,51.6L393.4,51.6L393.4,51.6z"/>
<path class="st0" d="M381.5,52.1l0.2,0.1l0,0.2l-0.3,0.2L381.5,52.1L381.5,52.1L381.5,52.1L381.5,52.1z"/>
<path class="st0" d="M396.7,53.5l0.3,0.2l-0.4,0.3l-0.1-0.1v-0.2L396.7,53.5L396.7,53.5z"/>
<path class="st0" d="M376.4,53.9l0.3,0.2l-0.4,0.3l-0.1-0.3L376.4,53.9L376.4,53.9L376.4,53.9z"/>
<path class="st0" d="M386.8,55.1l0.2,0l0.1,0.3l-0.2,0.2l-0.3-0.4L386.8,55.1L386.8,55.1L386.8,55.1z"/>
<path class="st0" d="M407.2,55.3L407.2,55.3l0.1,0.1l-0.2,0.1l-0.1-0.1L407.2,55.3L407.2,55.3L407.2,55.3z"/>
<path class="st0" d="M404.4,55.5l0.3,0.2l-0.2,0.3h-0.1l-0.2-0.2L404.4,55.5L404.4,55.5L404.4,55.5z"/>
<path class="st0" d="M403.2,56.9l0.3,0.3l0,0.1l-0.3,0.1l-0.2-0.2L403.2,56.9L403.2,56.9L403.2,56.9L403.2,56.9z"/>
<path class="st0" d="M387.7,57.2l0.3,0.2l-0.2,0.3l-0.4-0.2L387.7,57.2L387.7,57.2L387.7,57.2L387.7,57.2z"/>
<path class="st0" d="M377.5,57.4l0.2,0l0.1,0.3l-0.2,0.2l-0.3-0.2v-0.2L377.5,57.4L377.5,57.4L377.5,57.4z"/>
<path class="st0" d="M415.7,57.6l0.2,0.1l-0.3,0.4l-0.2-0.2l0-0.2L415.7,57.6L415.7,57.6L415.7,57.6z"/>
<path class="st0" d="M303.5,57.7l14.3,0.3l19.7,34.8l-4.9,2.7v0l0.1,0.1l0,0.1l-0.1,0.1l0,0l-0.1-0.1l-0.6,0.4l0.2,0.3l-17.8,10.2
	l-0.3-0.4l-18.7,12.3l-39.3-59.7L303.5,57.7L303.5,57.7z"/>
<path class="st0" d="M391,57.8l0.3,0.2v0.2l-0.2,0.2l-0.3-0.3L391,57.8L391,57.8L391,57.8z"/>
<path class="st0" d="M394.3,57.9l0.3,0.2v0.2l-0.2,0.2l-0.3-0.2L394.3,57.9L394.3,57.9L394.3,57.9L394.3,57.9z"/>
<path class="st0" d="M382.6,58.1l0.2,0l0,0.4l-0.4-0.3L382.6,58.1L382.6,58.1L382.6,58.1z"/>
<path class="st0" d="M401.4,58.9l0.2,0l0.1,0.3l-0.2,0.2l-0.3-0.2l0-0.3L401.4,58.9L401.4,58.9L401.4,58.9z"/>
<path class="st0" d="M375.8,59l0.2,0l0.1,0.4l-0.1,0.1l-0.3-0.2l0-0.3L375.8,59L375.8,59z"/>
<path class="st0" d="M368,59.3l1.2,1.8l1.6,0.1l1,2.3l-0.6,1l1,1.9l-2.4,1.5l0.4,0.5l-9.7,5.6l-1.2-1.9l-1.6,0.9l-2.6-4.4l1.6-0.9
	l-1.1-1.9l9.6-5.7l0.4,0.6L368,59.3L368,59.3L368,59.3z"/>
<path class="st0" d="M389.9,59.9l0.2,0l0.1,0.2v0.2l-0.3,0.2l-0.2-0.1L389.9,59.9L389.9,59.9L389.9,59.9z"/>
<path class="st0" d="M378.9,60.2l0.2,0.1l0,0.2l-0.3,0.2v0l-0.1-0.1L378.9,60.2L378.9,60.2L378.9,60.2L378.9,60.2z"/>
<path class="st0" d="M376.8,61.2l0.2,0l0.1,0.1l-0.2,0.3l-0.3-0.4L376.8,61.2L376.8,61.2L376.8,61.2z"/>
<path class="st0" d="M391.9,61.9L391.9,61.9l0.1,0.2l-0.2,0L391.9,61.9L391.9,61.9L391.9,61.9L391.9,61.9z"/>
<path class="st0" d="M385.8,62l0.3,0l-0.1,0.5l-0.3-0.3L385.8,62L385.8,62L385.8,62z"/>
<path class="st0" d="M398.8,62h0.2l0.2,0.2l-0.2,0.3l-0.3-0.4L398.8,62L398.8,62L398.8,62z"/>
<path class="st0" d="M391.5,62.4l0.1,0v0.2l-0.1,0V62.4L391.5,62.4L391.5,62.4z"/>
<path class="st0" d="M378.2,63.7l0.2,0l0.1,0.4l-0.2,0.1l-0.3-0.2L378.2,63.7L378.2,63.7L378.2,63.7z"/>
<path class="st0" d="M380.3,63.8l0.2,0l0.1,0.3l-0.2,0.2l-0.3-0.2L380.3,63.8L380.3,63.8z"/>
<path class="st0" d="M397.1,63.8l0.3,0.2l-0.2,0.3h-0.1l-0.2-0.3L397.1,63.8L397.1,63.8L397.1,63.8z"/>
<path class="st0" d="M417.9,64.6l0.3,0l0.1,0.1l-0.3,0.3L417.9,64.6L417.9,64.6z"/>
<path class="st0" d="M349.3,70.5h0.3l0.7,1l0.4,0.1l0.5,0.8l-0.7,0.4l-0.4-0.2l-12.8,7.2v0.5l-0.5,0.4l-0.3,0l-0.5-0.8l0.6-0.6
	l-4-6.4l2.9-1.5l1.2,2.4l8.6-4.4l-1.6-2.7l3-1.6l2.5,4.1l-0.2,0l0.5,0.3L349.3,70.5L349.3,70.5L349.3,70.5z"/>
<path class="st0" d="M394.9,65.6l0.3,0.2l0,0.2l-0.1,0.1l-0.2,0l-0.1-0.1L394.9,65.6L394.9,65.6L394.9,65.6z"/>
<path class="st0" d="M382.3,65.6l0.2,0.1l-0.3,0.4l-0.2-0.2l0-0.2L382.3,65.6L382.3,65.6L382.3,65.6z"/>
<path class="st0" d="M386.9,66L386.9,66l0.1,0.2l-0.1,0L386.9,66L386.9,66L386.9,66z"/>
<path class="st0" d="M386.4,66.1h0.1l0,0.1l0,0h-0.2L386.4,66.1L386.4,66.1z"/>
<path class="st0" d="M420.2,66.2l0.2,0.2l0,0.2l-0.3,0.2l-0.2-0.2L420.2,66.2L420.2,66.2L420.2,66.2L420.2,66.2z"/>
<path class="st0" d="M222,75.1l34.8-8.9l35.6,53.1l-35.7,20.4L222,75.1L222,75.1z"/>
<path class="st0" d="M379.5,67l0.2,0l0.1,0.3l-0.3,0.2l-0.2-0.1L379.5,67L379.5,67L379.5,67z"/>
<path class="st0" d="M377.6,67.6l1.4,2.6l-17,9.6l-1.4-2.7L377.6,67.6L377.6,67.6L377.6,67.6z"/>
<path class="st0" d="M391.7,67.9l0.2,0l0.1,0.1l-0.3,0.3l-0.1-0.4L391.7,67.9L391.7,67.9z"/>
<path class="st0" d="M379.9,68.1l0.2,0l0.1,0.3l-0.2,0.2l-0.3-0.2L379.9,68.1L379.9,68.1z"/>
<path class="st0" d="M388.7,70.1l0.3,0.2v0.2l-0.2,0.2l-0.3-0.2l0-0.2L388.7,70.1L388.7,70.1L388.7,70.1z"/>
<path class="st0" d="M386,71.1l0.3,0.2l-0.2,0.3l-0.3-0.2v-0.2L386,71.1L386,71.1L386,71.1z"/>
<path class="st0" d="M385,72.6l0.3,0.2l-0.1,0.3l-0.4-0.3L385,72.6L385,72.6L385,72.6z"/>
<path class="st0" d="M357.5,73.9l0.2,0.1l0.1,0.2l-0.2,0.3h-0.1l-0.2-0.3L357.5,73.9L357.5,73.9L357.5,73.9z"/>
<path class="st0" d="M380.9,74.8l0.3,0.2l0,0.2l-0.3,0.1l-0.2-0.1L380.9,74.8L380.9,74.8L380.9,74.8z"/>
<path class="st0" d="M351.6,75l0.2,0v0.5l-0.2,0l-0.1-0.1L351.6,75L351.6,75L351.6,75z"/>
<path class="st0" d="M379.4,75.3l0.3,0.2v0.2l-0.2,0.2l-0.3-0.2L379.4,75.3L379.4,75.3L379.4,75.3z"/>
<path class="st0" d="M353.3,75.7l0.2,0l0.1,0.2l-0.2,0.3l-0.3,0l-0.1-0.3L353.3,75.7L353.3,75.7L353.3,75.7z"/>
<path class="st0" d="M358.3,75.9l0.3,0.2l-0.2,0.3l-0.3-0.4L358.3,75.9L358.3,75.9z"/>
<path class="st0" d="M376.3,76.9l0.3,0.2l-0.2,0.3l-0.2,0l-0.2-0.3L376.3,76.9L376.3,76.9L376.3,76.9z"/>
<path class="st0" d="M348.8,77l0.2,0.1l0.1,0.3l-0.1,0.2l-0.3,0l-0.1-0.3L348.8,77L348.8,77L348.8,77z"/>
<path class="st0" d="M358.6,77.2l0.2,0l0.1,0.3l-0.3,0.2l-0.2-0.1l0-0.3L358.6,77.2L358.6,77.2L358.6,77.2z"/>
<path class="st0" d="M352.5,77.9l0.2,0l0.1,0.1l-0.2,0.3l-0.3-0.2l0-0.3L352.5,77.9L352.5,77.9L352.5,77.9z"/>
<path class="st0" d="M353.1,78.2l0.3,0.2l0,0.1l-0.2,0.3l0.2,0.3l-0.2,0.2l-0.3-0.2l0.2-0.4l-0.1-0.4L353.1,78.2L353.1,78.2
	L353.1,78.2z"/>
<path class="st0" d="M345.9,78.5l0.2,0.1l-0.3,0.4L345.9,78.5L345.9,78.5L345.9,78.5L345.9,78.5z"/>
<path class="st0" d="M351.8,79l0.2,0l0.2,0.3l-0.2,0.2l-0.2,0l-0.1-0.1L351.8,79L351.8,79L351.8,79z"/>
<path class="st0" d="M372.2,79.5l0.3,0.2l-0.2,0.3L372.2,79.5L372.2,79.5L372.2,79.5L372.2,79.5z"/>
<path class="st0" d="M354.5,79.5l0.3,0.2l-0.1,0.3l-0.3-0.4L354.5,79.5L354.5,79.5L354.5,79.5z"/>
<path class="st0" d="M373.4,79.7L373.4,79.7l0.1,0.2l-0.1,0l0,0L373.4,79.7L373.4,79.7z"/>
<path class="st0" d="M347.5,79.7l0.2,0l0.1,0.2V80l-0.2,0.2l-0.3-0.2L347.5,79.7L347.5,79.7L347.5,79.7z"/>
<path class="st0" d="M353.6,81.2l0.3,0.2l-0.4,0.3l-0.1-0.1L353.6,81.2L353.6,81.2L353.6,81.2L353.6,81.2z"/>
<path class="st0" d="M370,81.2l0.2,0.2l0,0.2l-0.3,0.2L370,81.2L370,81.2L370,81.2z"/>
<path class="st0" d="M338.4,81.5l0.3,0l-0.1,0.5l-0.3-0.3L338.4,81.5L338.4,81.5L338.4,81.5z"/>
<path class="st0" d="M342.3,81.5l0.3,0l0.1,0.3l-0.1,0.1l-0.4-0.1L342.3,81.5L342.3,81.5L342.3,81.5z"/>
<path class="st0" d="M354.5,82l0.3,0.2l-0.3,0.3l-0.2-0.1L354.5,82L354.5,82L354.5,82L354.5,82z"/>
<path class="st0" d="M345.8,82.4l0.3,0.2l0,0.2l-0.1,0.1l-0.4-0.3L345.8,82.4L345.8,82.4L345.8,82.4z"/>
<path class="st0" d="M367.5,82.5l0.3,0l-0.4,0.3L367.5,82.5L367.5,82.5L367.5,82.5z"/>
<path class="st0" d="M350,82.6l0.3,0.2V83l-0.1,0.1l-0.2,0l-0.2-0.1L350,82.6L350,82.6L350,82.6z"/>
<path class="st0" d="M339,82.9l0.2,0l0.1,0.3l-0.1,0.2l-0.3-0.2L339,82.9L339,82.9L339,82.9z"/>
<path class="st0" d="M354.9,83l0.2,0l0.1,0.2v0.2l-0.2,0.2l-0.3-0.2L354.9,83L354.9,83L354.9,83z"/>
<path class="st0" d="M365.5,84.1l0.3,0.2l-0.2,0.3h-0.2l-0.1-0.1v-0.2L365.5,84.1L365.5,84.1L365.5,84.1z"/>
<path class="st0" d="M363.9,84.2l0.2,0.2v0.2l-0.3,0.1l-0.2-0.2L363.9,84.2L363.9,84.2L363.9,84.2L363.9,84.2z"/>
<path class="st0" d="M344,84.3l0.2,0l0.1,0.2l-0.2,0.3l-0.2,0l-0.1-0.2L344,84.3L344,84.3z"/>
<path class="st0" d="M352.8,85h0.1l0,0.1l-0.1,0.1L352.8,85L352.8,85L352.8,85z"/>
<path class="st0" d="M350.8,85.6l0.3,0.2l-0.2,0.3l-0.3-0.2L350.8,85.6L350.8,85.6z"/>
<path class="st0" d="M349,85.8l0.2,0.2l0,0.2l-0.2,0.2l-0.3-0.2L349,85.8L349,85.8L349,85.8L349,85.8z"/>
<path class="st0" d="M340.8,85.9l0.3,0.2l0,0.2l-0.1,0.1l-0.3-0.2L340.8,85.9L340.8,85.9z"/>
<path class="st0" d="M361.5,86l0.3,0.1l0,0.2l-0.2,0.2l-0.3-0.2L361.5,86L361.5,86z"/>
<path class="st0" d="M345.5,86.3l0.2,0.2l-0.1,0.3h-0.2l-0.2-0.2L345.5,86.3L345.5,86.3L345.5,86.3L345.5,86.3z"/>
<path class="st0" d="M359.3,86.6l0.3,0.3l-0.1,0.1l-0.4-0.3L359.3,86.6L359.3,86.6L359.3,86.6z"/>
<path class="st0" d="M346.8,87.8l0.3,0.3l-0.3,0.2l-0.2-0.2L346.8,87.8L346.8,87.8L346.8,87.8L346.8,87.8z"/>
<path class="st0" d="M342.2,88.2l0.2,0l0.1,0.1l-0.3,0.3l-0.1-0.4L342.2,88.2L342.2,88.2L342.2,88.2z"/>
<path class="st0" d="M343.6,88.7l0.2,0l-0.1,0.5h-0.2L343.6,88.7L343.6,88.7z"/>
<path class="st0" d="M354.4,89.6h0.1l0,0.1l-0.1,0.1L354.4,89.6L354.4,89.6L354.4,89.6z"/>
<path class="st0" d="M359.1,89.8l0.2,0l0.1,0.2l0,0.2l-0.1,0.1l-0.3-0.2L359.1,89.8L359.1,89.8z"/>
<path class="st0" d="M345.5,143.3l-13.9,2.3l-5-22.4l0.3-0.1l-2.1-8.5l0.3-0.1l-0.9-2.4l0.8-0.8l-0.5-1l0.8-0.2l0-1.3l2.4-1.2
	l-0.1-0.3l13.3-8.5l-0.4-1.1l12.9-7.1l1,0.5L345.5,143.3L345.5,143.3L345.5,143.3z"/>
<path class="st0" d="M355.4,91.3l0.3,0.2l-0.2,0.3h-0.1l-0.2-0.3L355.4,91.3L355.4,91.3z"/>
<path class="st0" d="M355.5,94.5l0.3,0.2l-0.1,0.3l-0.3-0.2l0-0.2L355.5,94.5L355.5,94.5L355.5,94.5z"/>
<path class="st0" d="M361.4,94.8l0.2,0l0.1,0.2l-0.2,0.3l-0.3-0.1l0-0.2L361.4,94.8L361.4,94.8z"/>
<path class="st0" d="M332.5,96.6l0.1,0l0,0.1l-0.1,0.1l0-0.1L332.5,96.6L332.5,96.6L332.5,96.6z"/>
<path class="st0" d="M359.8,98.2l0.3,0.2v0.2l-0.2,0.2l-0.2,0l-0.1-0.4L359.8,98.2L359.8,98.2L359.8,98.2z"/>
<path class="st0" d="M358.4,99.4l0.2,0l-0.1,0.5l-0.3-0.3L358.4,99.4L358.4,99.4L358.4,99.4z"/>
<path class="st0" d="M361.9,100.9l3.5,5.5l-7.5,4.7l-3.5-5.5L361.9,100.9L361.9,100.9L361.9,100.9z"/>
<path class="st0" d="M333.8,101L333.8,101l0.1,0.2l-0.1,0l-0.1-0.1L333.8,101L333.8,101L333.8,101z"/>
<path class="st0" d="M225.7,153.5l-3.1-6l1.3-0.6l-2.5-4.4l7.7-5.3l-1.5-1.7l4.5-4.6l3.9,3.9L222.9,102h0l30.3,40.1l-13.5,7.7
	l-1.3-1.7l1-0.5l-0.8-2.1l1.1-1.1l-0.9-1.4l0.6-0.6l-3.5-3.7l0.7-0.7l-3.7-4.3l-1.4,0.6l-0.3,2.6l3.9,5l-2.5,1.9l4.3,6.4l-0.2,0.2
	L231,142l1.5-2.3l-0.7,0.5l-2.4-2.7L226,140l1.8,4.1l2.1-0.9l1.8,3.9l-2.3,1.5l1.3,2.4L225.7,153.5L225.7,153.5z"/>
<path class="st0" d="M329.1,103.1l0.2,0l0.1,0.1l-0.2,0.3l-0.3-0.4L329.1,103.1L329.1,103.1L329.1,103.1z"/>
<path class="st0" d="M327.3,104.2l0.1,0.5l-0.2,0l-0.1-0.1l0-0.2L327.3,104.2L327.3,104.2L327.3,104.2z"/>
<path class="st0" d="M324.3,106.1l0.3,0.2l-0.1,0.3l-0.4-0.3L324.3,106.1L324.3,106.1L324.3,106.1z"/>
<path class="st0" d="M322.2,108.4l0.2,0.2l0,0.2l-0.3,0.2l-0.2-0.2L322.2,108.4L322.2,108.4L322.2,108.4L322.2,108.4z"/>
<path class="st0" d="M366.7,108.5l1.7,2.4l-7,4.7l-1.8-2.5L366.7,108.5L366.7,108.5z"/>
<path class="st0" d="M311.2,109.2h0.1l0,0.1l0,0l-0.1,0V109.2L311.2,109.2z"/>
<path class="st0" d="M322.1,111.8l0.2,0l0.1,0.3l-0.2,0.2l-0.3-0.4L322.1,111.8L322.1,111.8L322.1,111.8z"/>
<path class="st0" d="M317.8,112.9l0.3,0.3l-0.3,0.2l-0.2-0.2L317.8,112.9L317.8,112.9L317.8,112.9L317.8,112.9z"/>
<path class="st0" d="M313.4,114.1l0.2,0l0.1,0.3l-0.3,0.1l-0.2-0.1L313.4,114.1L313.4,114.1L313.4,114.1L313.4,114.1z"/>
<path class="st0" d="M318.3,114.5l0.2,0l0.1,0.3l-0.3,0.2l-0.2-0.1L318.3,114.5L318.3,114.5L318.3,114.5z"/>
<path class="st0" d="M312.7,114.9l0.2,0l0.1,0.2l-0.2,0.3l-0.3-0.2v-0.1L312.7,114.9L312.7,114.9z"/>
<path class="st0" d="M299.4,116.4l0.1,0.1l-0.1,0.1L299.4,116.4L299.4,116.4L299.4,116.4L299.4,116.4z"/>
<path class="st0" d="M318.3,116.5l0.3,0.3l-0.3,0.2l-0.2-0.3L318.3,116.5L318.3,116.5L318.3,116.5z"/>
<path class="st0" d="M314.9,117.2l5.6,9.9l-11.7,6.6l-5.6-9.9L314.9,117.2L314.9,117.2L314.9,117.2z"/>
<path class="st0" d="M323.1,117.2l0.3,0.3l-0.2,0.2l-0.3-0.1l-0.1-0.1L323.1,117.2L323.1,117.2L323.1,117.2L323.1,117.2z"/>
<path class="st0" d="M309.5,118l0.1,0l0,0.1l-0.1,0.1L309.5,118L309.5,118z"/>
<path class="st0" d="M308,118.7L308,118.7l0.2,0.1l-0.2,0.1V118.7L308,118.7z"/>
<path class="st0" d="M319.5,119l0.3,0.2l-0.1,0.3l-0.4-0.3L319.5,119L319.5,119L319.5,119z"/>
<path class="st0" d="M291.7,121L291.7,121l0.1,0.2l-0.2,0L291.7,121L291.7,121L291.7,121L291.7,121z"/>
<path class="st0" d="M321.6,122l0.3,0.2l-0.3,0.3L321.6,122L321.6,122L321.6,122L321.6,122z"/>
<path class="st0" d="M300.1,123.4l6.8,11.3l1-0.6l1.7,2.8l0.7,0l-1-1.8l2.7-1.4l3.1,9.5l-30.5,7.1l7.1,39.6l-9.2,0.1l-25-39.6
	l0.3-0.3l-0.4-0.9l2.6-1.6l0.5,0.8l0.9,0l4.2,6.7l1.5-0.9l-5-8.8L300.1,123.4L300.1,123.4L300.1,123.4z"/>
<path class="st0" d="M287.4,123.4l0.1,0.2l-0.2,0L287.4,123.4L287.4,123.4L287.4,123.4L287.4,123.4z"/>
<path class="st0" d="M301.6,124.3l0.2,0l0.5,0.9l-0.2,0.2l-0.7-0.9L301.6,124.3L301.6,124.3z"/>
<path class="st0" d="M322.7,125.4l0.3,0l-0.4,0.3L322.7,125.4L322.7,125.4L322.7,125.4z"/>
<path class="st0" d="M292.5,125.7l0.3,0l0.1,0.1l-0.2,0.3l-0.3-0.2L292.5,125.7L292.5,125.7L292.5,125.7z"/>
<path class="st0" d="M325.8,126.3l0.3,0.2l-0.2,0.3l-0.3-0.4L325.8,126.3L325.8,126.3L325.8,126.3z"/>
<path class="st0" d="M325.9,128.2l0.3,0l-0.2,0.5l-0.2-0.2L325.9,128.2L325.9,128.2L325.9,128.2z"/>
<path class="st0" d="M248.3,128.3l0.3,0.2l-0.3,0.3L248.3,128.3L248.3,128.3L248.3,128.3L248.3,128.3z"/>
<path class="st0" d="M277.1,128.5l0.2,0.1l0.1,0.2l-0.1,0.1l-0.3,0.1l-0.1,0l-0.1-0.3L277.1,128.5L277.1,128.5L277.1,128.5z"/>
<path class="st0" d="M289.4,128.5L289.4,128.5l0.1,0.2l-0.1,0v0L289.4,128.5L289.4,128.5L289.4,128.5z"/>
<path class="st0" d="M326.4,130.5l0.2,0.1l-0.3,0.4l-0.2-0.2l0-0.2L326.4,130.5L326.4,130.5z"/>
<path class="st0" d="M274.3,131.2L274.3,131.2l0.2,0.1l-0.2,0.1V131.2L274.3,131.2z"/>
<path class="st0" d="M273.6,131.6L273.6,131.6l0.1,0.2l-0.1,0l0,0L273.6,131.6L273.6,131.6z"/>
<path class="st0" d="M306.2,132l0.2,0l0.7,2l-1.1-1.8L306.2,132L306.2,132L306.2,132z"/>
<path class="st0" d="M251,132.1l0.3,0.2l0,0.3l-0.3,0.1l-0.2-0.2l0.1-0.3L251,132.1L251,132.1z"/>
<path class="st0" d="M195.1,132.6l28,26.2l-46,20L150,142.1L195.1,132.6L195.1,132.6z"/>
<path class="st0" d="M281.5,133.1L281.5,133.1l0.1,0.2l-0.2,0L281.5,133.1L281.5,133.1L281.5,133.1z"/>
<path class="st0" d="M327.1,133.5l0.3,0.2l-0.1,0.3l-0.4-0.3L327.1,133.5L327.1,133.5L327.1,133.5z"/>
<path class="st0" d="M269.7,133.9L269.7,133.9l0.1,0.2l-0.1,0l0,0L269.7,133.9L269.7,133.9L269.7,133.9z"/>
<path class="st0" d="M253.1,135.5l0.3,0.2v0.2l-0.1,0.1l-0.3-0.4L253.1,135.5L253.1,135.5L253.1,135.5z"/>
<path class="st0" d="M327.8,135.6l0.2,0l0.1,0.2l-0.2,0.3h-0.2l-0.2-0.3L327.8,135.6L327.8,135.6L327.8,135.6z"/>
<path class="st0" d="M266,135.6l0.3,0.2l-0.2,0.3l-0.2,0L266,135.6L266,135.6L266,135.6L266,135.6z"/>
<path class="st0" d="M263.2,137.2l0.3,0.2l-0.4,0.3l-0.1-0.2v-0.2L263.2,137.2L263.2,137.2L263.2,137.2z"/>
<path class="st0" d="M271,137.5l0.2,0l0.1,0.1L271,138l-0.1-0.4L271,137.5L271,137.5L271,137.5z"/>
<path class="st0" d="M270,138l0.2,0l0.2,0.3l-0.1,0.2l-0.4-0.1l0-0.2L270,138L270,138z"/>
<path class="st0" d="M272.5,138.1l0.1,0l0,0.1l-0.2,0L272.5,138.1L272.5,138.1L272.5,138.1L272.5,138.1z"/>
<path class="st0" d="M260.9,138.6l0.3,0.2v0.1l-0.3,0.2l-0.2-0.4L260.9,138.6L260.9,138.6L260.9,138.6z"/>
<path class="st0" d="M269,138.9l0.3,0.2v0.1l-0.3,0.2l-0.2-0.3L269,138.9L269,138.9L269,138.9z"/>
<path class="st0" d="M267.8,139.7l0.3,0.2l-0.1,0.3l-0.4-0.3L267.8,139.7L267.8,139.7L267.8,139.7z"/>
<path class="st0" d="M261.4,140l0.1,0v0l-0.1,0.1L261.4,140L261.4,140L261.4,140L261.4,140z"/>
<path class="st0" d="M266.8,140.4l0.2,0l0.1,0.3l-0.3,0.2l-0.2-0.1L266.8,140.4L266.8,140.4L266.8,140.4z"/>
<path class="st0" d="M259.7,140.7l0.1,0l0,0.1l-0.2,0L259.7,140.7L259.7,140.7L259.7,140.7L259.7,140.7z"/>
<path class="st0" d="M264.7,142.5l0.1,0.2l-0.2,0.1L264.7,142.5L264.7,142.5L264.7,142.5L264.7,142.5z"/>
<path class="st0" d="M144.6,142.8L144.6,142.8l6.9,9.1l-11.3,7.2l0.3,0.7l-6.3,4l-2.1-3.2l-6.9,5.3l9,16.5l5.3-3.6l2,2.6l-0.3,0.1
	l0.3,0.6l-6.5,4.6l0.7,1l-9.2,6.5l-2.9-4.2l1.7-1.3l-1.1-1.9l5.5-4L128,180l3-2.3l-6.1-11.5l-8,5.9l2.3,3.7l-9.1,5.6l6.5,9.8
	l1.3-0.8l5.6,8.2l-6,4.1l0.4,0.7l-1,0.7l0.7,1l-3.7,2.5l1.1,1.4l-2.9,2l1,1.5l-2.2,1.5l-3.5-4.8l-2.9,1.9l-6.4-9.2v0l-3.3,2.3
	l-2.5-3.4l5.9-4.3l-4-4.1l-4.7,2.9l-0.5-0.4l-5.3,3.1l-3.4-5.7l1-1.1l-6-7.3l18.5,0.6l3.2-11.7l28.3-7.3l6.7-17.4L144.6,142.8
	L144.6,142.8L144.6,142.8z"/>
<path class="st0" d="M261.1,144.7L261.1,144.7l0.1,0.2l-0.1,0l0,0L261.1,144.7L261.1,144.7L261.1,144.7z"/>
<path class="st0" d="M147.8,144.8l0.2,0l0.1,0.3l-0.3,0.2l-0.2-0.1V145L147.8,144.8L147.8,144.8z"/>
<path class="st0" d="M251.8,145.3h0.1l0,0.1l-0.1,0.1L251.8,145.3L251.8,145.3z"/>
<path class="st0" d="M251,145.6l0.1,0l0,0.1l-0.1,0.1l-0.1,0L251,145.6L251,145.6L251,145.6z"/>
<path class="st0" d="M258.1,146.2L258.1,146.2l0.1,0.2l-0.2,0L258.1,146.2L258.1,146.2L258.1,146.2z"/>
<path class="st0" d="M217.5,146.7l0.2,0l0.2,0.3l-0.1,0.1l-0.4,0l0-0.2L217.5,146.7L217.5,146.7L217.5,146.7z"/>
<path class="st0" d="M233.8,147l0.3,0.2l0,0.3l-0.3,0.1l-0.2-0.3L233.8,147L233.8,147L233.8,147z"/>
<path class="st0" d="M153.2,147.2l0.3,0.2l-0.2,0.3l-0.3-0.2v-0.2L153.2,147.2L153.2,147.2L153.2,147.2z"/>
<path class="st0" d="M247,148L247,148l0.1,0.2l-0.1,0V148L247,148z"/>
<path class="st0" d="M245.3,148.1l0.2,0l0.1,0.3l-0.2,0.2l-0.3-0.2L245.3,148.1L245.3,148.1z"/>
<path class="st0" d="M220.1,148.6l0.3,0.2l-0.2,0.3l-0.3-0.3L220.1,148.6L220.1,148.6L220.1,148.6z"/>
<path class="st0" d="M243.8,148.8l0.2,0l-0.4,0.3L243.8,148.8L243.8,148.8L243.8,148.8z"/>
<path class="st0" d="M231,149.3l0.2,0l0.1,0.1l-0.2,0.3l-0.3-0.3L231,149.3L231,149.3L231,149.3z"/>
<path class="st0" d="M155.6,149.6l0.3,0.2l-0.3,0.3L155.6,149.6L155.6,149.6L155.6,149.6L155.6,149.6z"/>
<path class="st0" d="M235,149.9l0.3,0.2v0.2l-0.2,0.2l-0.3-0.2L235,149.9L235,149.9z"/>
<path class="st0" d="M231.8,150.3l0.3,0.2l-0.1,0.3l-0.4-0.3L231.8,150.3L231.8,150.3L231.8,150.3z"/>
<path class="st0" d="M233.4,150.3l0.3,0l-0.1,0.5l-0.2,0l-0.1-0.1L233.4,150.3L233.4,150.3L233.4,150.3z"/>
<path class="st0" d="M240.5,150.6l0.2,0.2l0,0.2l-0.3,0.2l-0.2-0.2l0-0.2L240.5,150.6L240.5,150.6L240.5,150.6z"/>
<path class="st0" d="M222.6,151l0.3,0.2l0,0.3l-0.3,0.1l-0.2-0.3L222.6,151L222.6,151z"/>
<path class="st0" d="M241.7,151.1L241.7,151.1l0.2,0.1l-0.2,0.1V151.1L241.7,151.1z"/>
<path class="st0" d="M253,151.1l0.3,0.3l0,0.1l-0.5-0.1L253,151.1L253,151.1L253,151.1L253,151.1z"/>
<path class="st0" d="M248.7,151.2L248.7,151.2l0.2,0.1l-0.2,0.1V151.2L248.7,151.2z"/>
<path class="st0" d="M248.9,151.4L248.9,151.4l0.1,0.2l-0.1,0V151.4L248.9,151.4z"/>
<path class="st0" d="M248.9,151.7l0.2,0v0.5l-0.2,0l-0.1-0.1L248.9,151.7L248.9,151.7L248.9,151.7z"/>
<path class="st0" d="M250.8,151.9L250.8,151.9l0.1,0.2l-0.1,0l0,0L250.8,151.9L250.8,151.9L250.8,151.9z"/>
<path class="st0" d="M153.8,152.3l0.3,0.1l0.1,0.2l-0.2,0.2l-0.3-0.2L153.8,152.3L153.8,152.3L153.8,152.3z"/>
<path class="st0" d="M246.2,152.4L246.2,152.4l0.2,0.1l-0.2,0.1V152.4L246.2,152.4z"/>
<path class="st0" d="M224.3,153.2l0.3,0.1l0.1,0.2l-0.1,0.2l-0.4-0.1L224.3,153.2L224.3,153.2L224.3,153.2z"/>
<path class="st0" d="M233.9,153.8l0.2,0l0.1,0.4l-0.2,0.1l-0.3-0.2v-0.2L233.9,153.8L233.9,153.8L233.9,153.8z"/>
<path class="st0" d="M236,153.8l0.1,0.2L236,154L236,153.8L236,153.8L236,153.8L236,153.8z"/>
<path class="st0" d="M244.7,153.9l0.2,0l-0.1,0.5l-0.3-0.3L244.7,153.9L244.7,153.9L244.7,153.9z"/>
<path class="st0" d="M253.1,154l0.3,0.2l-0.2,0.3l-0.3-0.4L253.1,154L253.1,154L253.1,154z"/>
<path class="st0" d="M243.6,154.2h0.1l0,0.1l-0.1,0.1l0,0L243.6,154.2L243.6,154.2z"/>
<path class="st0" d="M226.5,154.5l0.7,0.4l-0.2,0.3l-0.6-0.5L226.5,154.5L226.5,154.5L226.5,154.5z"/>
<path class="st0" d="M243.2,157.2L243.2,157.2l1.2,2l-1.8,0.8l1.4,1.8l-0.4,0.2l0.3,0.4l-11.4,3.9l-0.1-0.1l-1.5,0.7l-0.8-1.5
	l-4.1,3.4l3.9,7.6l-6.7,3.5h0l0.5,0.6l-3.1,1.8l-0.1,0l-14.1,7l-0.1-0.1l-30.3,10.9l-5.4-9.1l31.1-14.4l3.7,9.7l12.1-5.7l-2.3-3.9
	l2-1.2l3.3,5.4l1.3-0.9l-4.9-9.2l7.9-4.3l0.3,0.5l4.6-2.5l-0.3-0.6l11.8-6.4l0.3,0.5L243.2,157.2L243.2,157.2L243.2,157.2z"/>
<path class="st0" d="M246.6,157.3l0.2,0l0.1,0.2l-0.2,0.3l-0.4-0.3L246.6,157.3L246.6,157.3L246.6,157.3z"/>
<path class="st0" d="M228.9,157.7L228.9,157.7l0.2,0.1l-0.2,0.1V157.7L228.9,157.7z"/>
<path class="st0" d="M227.3,158.6l0.1,0.2l-0.1,0l0,0L227.3,158.6L227.3,158.6L227.3,158.6L227.3,158.6z"/>
<path class="st0" d="M260.5,158.9l0.3,0.2l-0.4,0.3l0-0.4L260.5,158.9L260.5,158.9z"/>
<path class="st0" d="M255.4,159l0.2,0l-0.1,0.5l-0.3-0.2L255.4,159L255.4,159L255.4,159z"/>
<path class="st0" d="M162.4,159l0.3,0.2l-0.3,0.3L162.4,159L162.4,159L162.4,159z"/>
<path class="st0" d="M232.8,159.6l0.1,0l0,0.1l-0.1,0l0,0L232.8,159.6L232.8,159.6L232.8,159.6z"/>
<path class="st0" d="M159.9,161l0.3,0.1l0,0.3l-0.3,0.1l-0.1-0.1L159.9,161L159.9,161z"/>
<path class="st0" d="M261.7,161l0.2,0l0.1,0.2l-0.2,0.3l-0.3,0l-0.1-0.3L261.7,161L261.7,161L261.7,161z"/>
<path class="st0" d="M154.1,161.1l1.4,2.1l-0.8,0.7l5.5,8.3l0.9-0.5l3.3,5.3l-2.8,1.9l0.4,0.8l-1,0.8l0.4,0.7l-1.1,0.8l-1-1.4
	l-2.2,1.6v0l0.4,0.5l-4.6,3l-4.4-6.1l1-0.9l-5.4-8.3l1.8-1.3l-0.9-1.3L154.1,161.1L154.1,161.1L154.1,161.1z"/>
<path class="st0" d="M254.3,161.6l0.3,0.2l-0.2,0.3h-0.1l-0.2-0.3L254.3,161.6L254.3,161.6L254.3,161.6z"/>
<path class="st0" d="M220,162l0.2,0l0.1,0.2v0.2l-0.3,0.2l-0.2-0.1L220,162L220,162z"/>
<path class="st0" d="M249.2,162.1h0.2l0.2,0.2l-0.2,0.3l-0.3-0.1l0-0.3L249.2,162.1L249.2,162.1L249.2,162.1z"/>
<path class="st0" d="M250.2,163.6l0.3,0.3l-0.3,0.2l-0.2-0.2L250.2,163.6L250.2,163.6L250.2,163.6L250.2,163.6z"/>
<path class="st0" d="M166.2,163.8l0.2,0l0.1,0.2v0.2l-0.2,0.2l-0.3-0.2L166.2,163.8L166.2,163.8z"/>
<path class="st0" d="M227.7,163.9h0.1l0,0.1l-0.1,0.1L227.7,163.9L227.7,163.9L227.7,163.9z"/>
<path class="st0" d="M260,164l0.2,0l-0.1,0.5l-0.3-0.4L260,164L260,164L260,164z"/>
<path class="st0" d="M258.7,164.2l18.1,28l-46.9-0.9l-2.1-9.2L258.7,164.2L258.7,164.2L258.7,164.2z"/>
<path class="st0" d="M226.3,164.9l0.3,0l0.1,0.1l-0.3,0.3L226.3,164.9L226.3,164.9z"/>
<path class="st0" d="M215.2,165.4l0.1,0.2l-0.1,0.1l-0.1-0.1L215.2,165.4L215.2,165.4z"/>
<path class="st0" d="M265,165.9l0.3,0l-0.1,0.5l-0.3-0.3L265,165.9L265,165.9L265,165.9z"/>
<path class="st0" d="M261.9,167.5l0.2,0l0.2,0.3h0l-0.1,0.1l-0.4-0.1L261.9,167.5L261.9,167.5L261.9,167.5z"/>
<path class="st0" d="M210.7,167.6L210.7,167.6l0.1,0.2l-0.2,0L210.7,167.6L210.7,167.6L210.7,167.6z"/>
<path class="st0" d="M164.8,168.2l0.2,0l0.1,0.2l-0.2,0.3l-0.3-0.1l0-0.2L164.8,168.2L164.8,168.2L164.8,168.2z"/>
<path class="st0" d="M217.2,168.3h0.1l0,0.1l0,0h-0.2L217.2,168.3L217.2,168.3z"/>
<path class="st0" d="M169.7,168.6l0.3,0.2l-0.2,0.3l-0.3-0.2l0.1-0.3L169.7,168.6L169.7,168.6z"/>
<path class="st0" d="M207.5,168.7l0.1,0v0.2l-0.1,0V168.7L207.5,168.7z"/>
<path class="st0" d="M267.6,169l0.2,0l0.1,0.3l-0.3,0.2l-0.3-0.2L267.6,169L267.6,169L267.6,169z"/>
<path class="st0" d="M213.5,169.9l0.3,0.3l-0.2,0.2h-0.2l-0.2-0.2L213.5,169.9L213.5,169.9L213.5,169.9L213.5,169.9z"/>
<path class="st0" d="M26.3,170.3l5.6,4.4l0.7-0.5l19,10.2l-3.3,4.3l-0.8-0.5l-0.8,0.8l0.3,0.6l-6.2,4.7l-11-8.3l-1.6,2l-2.5-1.2
	l-0.4,0.3l-9.1-4.7L26.3,170.3L26.3,170.3L26.3,170.3z"/>
<path class="st0" d="M211.9,170.5l0.3,0.2l-0.3,0.3l-0.2-0.3L211.9,170.5L211.9,170.5L211.9,170.5z"/>
<path class="st0" d="M212.6,170.7L212.6,170.7l0.1,0.1l0,0l-0.1,0V170.7L212.6,170.7z"/>
<path class="st0" d="M213.4,170.9l0.3,0.7l-1.2,0.4l-0.3-0.6L213.4,170.9L213.4,170.9z"/>
<path class="st0" d="M202.7,170.9l0.1,0l0,0.1l-0.2,0V170.9L202.7,170.9z"/>
<path class="st0" d="M264.7,171.3l0.3,0.3l0,0.1l-0.3,0.1l-0.2-0.2L264.7,171.3L264.7,171.3L264.7,171.3L264.7,171.3z"/>
<path class="st0" d="M165.8,171.7l0.2,0l0.1,0.2l-0.2,0.3l-0.3-0.2L165.8,171.7L165.8,171.7L165.8,171.7z"/>
<path class="st0" d="M172.1,171.8l0.2,0.4l-0.5-0.2L172.1,171.8L172.1,171.8z"/>
<path class="st0" d="M269.2,171.9l0.3,0.2l-0.2,0.3l-0.2,0l-0.1-0.1L269.2,171.9L269.2,171.9L269.2,171.9z"/>
<path class="st0" d="M210.4,182.4l-1.8-3.7l-1.5-0.6l-3,1.2l-1.5-2.9l7-3.1l1.8,3.3l-0.2,0.1l2.6,5.1l-3.4,1.9l-0.6-1.2L210.4,182.4
	L210.4,182.4L210.4,182.4z"/>
<path class="st0" d="M194.2,174.1L194.2,174.1l0.1,0.2l-0.2,0L194.2,174.1L194.2,174.1L194.2,174.1z"/>
<path class="st0" d="M202.9,174.3L202.9,174.3l0.1,0.1h0l-0.1,0.1l-0.1-0.1L202.9,174.3L202.9,174.3L202.9,174.3z"/>
<path class="st0" d="M266.7,174.4l0.2,0l0.1,0.3l-0.1,0.2l-0.3-0.2L266.7,174.4L266.7,174.4L266.7,174.4z"/>
<path class="st0" d="M173.7,174.4l0.2,0l0.1,0.4l-0.1,0.1l-0.2,0l-0.1-0.3L173.7,174.4L173.7,174.4z"/>
<path class="st0" d="M167.9,174.7l0.2,0l0.1,0.3l-0.1,0.1l-0.4-0.3L167.9,174.7L167.9,174.7z"/>
<path class="st0" d="M272,176.1l0.2,0l0.1,0.3l-0.3,0.2l-0.2-0.1L272,176.1L272,176.1L272,176.1z"/>
<path class="st0" d="M186,177l0.1,0.1l-0.1,0.1L186,177L186,177L186,177L186,177z"/>
<path class="st0" d="M175.1,177l0.2,0l0.1,0.3l-0.1,0.2l-0.3-0.4L175.1,177L175.1,177L175.1,177z"/>
<path class="st0" d="M268.8,177.4l0.2,0l0.2,0.2l0,0.2l-0.1,0.1l-0.3-0.3L268.8,177.4L268.8,177.4L268.8,177.4z"/>
<path class="st0" d="M169.7,177.5l0.2,0l0.1,0.1l-0.3,0.3l-0.1-0.4L169.7,177.5L169.7,177.5L169.7,177.5z"/>
<path class="st0" d="M194.9,177.9L194.9,177.9l0.1,0.1l-0.2,0.1l-0.1-0.1L194.9,177.9L194.9,177.9L194.9,177.9z"/>
<path class="st0" d="M183.6,178.2L183.6,178.2l0.1,0.2l-0.1,0V178.2L183.6,178.2z"/>
<path class="st0" d="M176.3,179.2l0.2,0l0.1,0.2l-0.1,0.3l-0.1,0.1l-0.3-0.2L176.3,179.2L176.3,179.2L176.3,179.2z"/>
<path class="st0" d="M179.5,180.1l0.3,0.2l-0.2,0.3l-0.3-0.2L179.5,180.1L179.5,180.1z"/>
<path class="st0" d="M274.9,180.2l0.3,0.2l-0.2,0.3L274.9,180.2L274.9,180.2L274.9,180.2L274.9,180.2z"/>
<path class="st0" d="M162.2,180.7l0.3,0.2l0,0.2H162l0-0.2L162.2,180.7L162.2,180.7L162.2,180.7z"/>
<path class="st0" d="M270.7,180.8l0.2,0l0.1,0.2l-0.2,0.3l-0.3-0.2V181L270.7,180.8L270.7,180.8z"/>
<path class="st0" d="M169,181.3l0.1,0.5l-0.2,0l-0.1-0.1L169,181.3L169,181.3L169,181.3L169,181.3z"/>
<path class="st0" d="M186.3,181.7l0.1,0.1l-0.2,0L186.3,181.7L186.3,181.7L186.3,181.7L186.3,181.7z"/>
<path class="st0" d="M144,181.7l0.2,0l0.1,0.3l-0.2,0.2l-0.3-0.2L144,181.7L144,181.7L144,181.7z"/>
<path class="st0" d="M146,182.1l0.3,0.2l-0.5,0L146,182.1L146,182.1z"/>
<path class="st0" d="M163.3,182.3l0.3,0.3l-0.3,0.2l-0.2-0.2L163.3,182.3L163.3,182.3L163.3,182.3L163.3,182.3z"/>
<path class="st0" d="M166,182.5l0.5,0.3l0,0.2l-0.5,0.3l-0.2,0l-0.3-0.4L166,182.5L166,182.5L166,182.5z"/>
<path class="st0" d="M144.8,182.7l0.3,0.2l0,0.2l-0.3,0.1l-0.2-0.2L144.8,182.7L144.8,182.7L144.8,182.7z"/>
<path class="st0" d="M171.7,183.4L171.7,183.4l0.2,0.1l-0.1,0.1l0,0L171.7,183.4L171.7,183.4z"/>
<path class="st0" d="M147.6,183.5l0.2,0l0.1,0.2l-0.3,0.3l-0.2-0.1L147.6,183.5L147.6,183.5L147.6,183.5z"/>
<path class="st0" d="M164.3,183.5l0.4,0.7l-0.7-0.4L164.3,183.5L164.3,183.5z"/>
<path class="st0" d="M171.4,183.5h0.1l0,0.1l-0.1,0.1L171.4,183.5L171.4,183.5L171.4,183.5z"/>
<path class="st0" d="M169.9,183.7l0.3,0.2l-0.2,0.3l-0.3-0.4L169.9,183.7L169.9,183.7L169.9,183.7z"/>
<path class="st0" d="M161.8,183.7l0.1,0l0.2,0.7l-0.3,0.2l-0.4-0.6L161.8,183.7L161.8,183.7L161.8,183.7z"/>
<path class="st0" d="M146.4,184.4l0.3,0.1l0,0.2l-0.2,0.2l-0.3-0.4L146.4,184.4L146.4,184.4L146.4,184.4z"/>
<path class="st0" d="M148.3,184.6l0.3,0.2l0,0.3l-0.3,0.1l-0.2-0.3L148.3,184.6L148.3,184.6L148.3,184.6z"/>
<path class="st0" d="M168,184.6l0.2,0l0.1,0.3l-0.1,0.2l-0.3-0.3L168,184.6L168,184.6z"/>
<path class="st0" d="M151.1,184.8l0.2,0l-0.3,0.5L151.1,184.8L151.1,184.8z"/>
<path class="st0" d="M272.9,184.8l0.2,0l0.1,0.3l-0.2,0.2l-0.3-0.2L272.9,184.8L272.9,184.8z"/>
<path class="st0" d="M162.8,185.1l0.3,0.3l-0.3,0.2l-0.2-0.2L162.8,185.1L162.8,185.1L162.8,185.1L162.8,185.1z"/>
<path class="st0" d="M278,185.6l0.2,0l0.1,0.3l-0.2,0.2l-0.3-0.4L278,185.6L278,185.6L278,185.6z"/>
<path class="st0" d="M149.9,185.7l0.3,0.3l-0.2,0.2l-0.3-0.3L149.9,185.7L149.9,185.7L149.9,185.7z"/>
<path class="st0" d="M166.7,185.8l0.1,0v0.2l-0.1,0V185.8L166.7,185.8z"/>
<path class="st0" d="M148.1,186l0.3,0.2l-0.2,0.3l-0.3-0.1l-0.1-0.2L148.1,186L148.1,186L148.1,186z"/>
<path class="st0" d="M145.4,186l0.3,0.2l0,0.3l-0.3,0.1l-0.2-0.3L145.4,186L145.4,186z"/>
<path class="st0" d="M160.9,186.1l0.2,0l0.3,0.6l-0.2,0.3l-0.2,0l-0.3-0.7L160.9,186.1L160.9,186.1L160.9,186.1z"/>
<path class="st0" d="M152.9,186.3l0.3,0.3l0,0.1l-0.3,0.1l-0.2-0.2L152.9,186.3L152.9,186.3L152.9,186.3L152.9,186.3z"/>
<path class="st0" d="M147.5,186.4l0.3,0.2l-0.2,0.3l-0.3-0.1l-0.1-0.2L147.5,186.4L147.5,186.4L147.5,186.4z"/>
<path class="st0" d="M174.4,186.4l0.1,0.1l0,0l-0.1,0V186.4L174.4,186.4L174.4,186.4z"/>
<path class="st0" d="M172.5,186.6l0.3,0.2l0,0.2l-0.1,0.1l-0.2,0l-0.1-0.3L172.5,186.6L172.5,186.6L172.5,186.6z"/>
<path class="st0" d="M175.3,186.8L175.3,186.8l0.1,0.2l-0.1,0l0,0L175.3,186.8L175.3,186.8L175.3,186.8z"/>
<path class="st0" d="M149.4,187.1l0.3,0.2l-0.3,0.3l-0.1-0.4L149.4,187.1L149.4,187.1L149.4,187.1z"/>
<path class="st0" d="M170.8,187.6l0.2,0l0.1,0.2l-0.2,0.3l-0.3,0L170.8,187.6L170.8,187.6L170.8,187.6L170.8,187.6z"/>
<path class="st0" d="M151,187.7l0.2,0l0.1,0.3l-0.1,0.2l-0.3-0.4L151,187.7L151,187.7L151,187.7z"/>
<path class="st0" d="M153.9,187.9l0.3,0.2l-0.2,0.3l-0.3-0.2V188L153.9,187.9L153.9,187.9L153.9,187.9z"/>
<path class="st0" d="M149.7,188.4l0.3,0.3l-0.3,0.2l-0.2-0.2L149.7,188.4L149.7,188.4L149.7,188.4L149.7,188.4z"/>
<path class="st0" d="M145.7,188.6l0.4,0.7l-1.2,0.2l-0.1-0.2L145.7,188.6L145.7,188.6L145.7,188.6z"/>
<path class="st0" d="M171.9,188.7L171.9,188.7l0.1,0.2l-0.1,0L171.9,188.7L171.9,188.7L171.9,188.7L171.9,188.7z"/>
<path class="st0" d="M152,188.8l0.3,0.2l-0.2,0.3l-0.3-0.2L152,188.8L152,188.8L152,188.8z"/>
<path class="st0" d="M275.6,188.8l0.2,0l0.1,0.3l-0.1,0.2l-0.3-0.1L275.6,188.8L275.6,188.8L275.6,188.8z"/>
<path class="st0" d="M139.6,189l0.2,0l0.1,0.4l-0.2,0.1l-0.3-0.2L139.6,189L139.6,189L139.6,189z"/>
<path class="st0" d="M160.9,189.1l0.1,0l0,0.1l-0.2,0L160.9,189.1L160.9,189.1L160.9,189.1z"/>
<path class="st0" d="M156.2,189.2l0.2,0.1l0.1,0.2l-0.2,0.3h-0.1l-0.2-0.3L156.2,189.2L156.2,189.2L156.2,189.2z"/>
<path class="st0" d="M19.4,189.3l66.2,54.4l-14.9,17.6L19.4,189.3L19.4,189.3L19.4,189.3z"/>
<path class="st0" d="M60.1,189.5L71.5,200l2.1-4.1h0l3.8,4.5l-5.6,4.8l-1.9-1.4l-7.6,5.1l-11.2-14.1L60.1,189.5L60.1,189.5z"/>
<path class="st0" d="M150.5,189.7l0.1,0l0.1,0.3l-0.1,0.2l-0.3-0.3L150.5,189.7L150.5,189.7L150.5,189.7z"/>
<path class="st0" d="M152.6,191.4l0.2,0.2l0,0.2l-0.2,0.2l-0.3-0.1l-0.1-0.1L152.6,191.4L152.6,191.4L152.6,191.4L152.6,191.4z"/>
<path class="st0" d="M165.9,191.4l0.2,0l0.1,0.3l-0.2,0.2l-0.3-0.2L165.9,191.4L165.9,191.4L165.9,191.4z"/>
<path class="st0" d="M156.6,191.7L156.6,191.7l0.1,0.2l-0.1,0l0,0L156.6,191.7L156.6,191.7L156.6,191.7z"/>
<path class="st0" d="M146.4,192.4l0.2,0.1l0.1,0.3l-0.1,0.1l-0.3-0.1L146.4,192.4L146.4,192.4L146.4,192.4z"/>
<path class="st0" d="M163.8,192.5l0.2,0.2l0,0.2l-0.2,0.2l-0.3-0.1l-0.1-0.1L163.8,192.5L163.8,192.5L163.8,192.5L163.8,192.5z"/>
<path class="st0" d="M147.1,192.9l0.3,0.2l-0.1,0.3l-0.1,0.1l-0.3-0.2L147.1,192.9L147.1,192.9L147.1,192.9z"/>
<path class="st0" d="M133.4,193l0.3,0.2l-0.5,0L133.4,193L133.4,193z"/>
<path class="st0" d="M132.2,194l0.2,0l0.1,0.3l-0.1,0.2l-0.3-0.2L132.2,194L132.2,194L132.2,194z"/>
<path class="st0" d="M152.6,194.1l0.1,0l0,0.1l-0.2,0L152.6,194.1L152.6,194.1L152.6,194.1L152.6,194.1z"/>
<path class="st0" d="M161.4,194.3l0.2,0l0.1,0.3l-0.2,0.2l-0.3-0.2L161.4,194.3L161.4,194.3L161.4,194.3z"/>
<path class="st0" d="M162.6,194.3l0.1,0l0,0.1l-0.2,0L162.6,194.3L162.6,194.3L162.6,194.3L162.6,194.3z"/>
<path class="st0" d="M131.1,194.5l0.8,0.6l-0.2,0.2l-0.7-0.2l-0.4,0.4l0.1,0.6l-0.2,0.1l-0.2-0.1l-0.2-0.4l0.6-1.2L131.1,194.5
	L131.1,194.5z"/>
<path class="st0" d="M147,194.6l0.2,0l0.1,0.3l-0.2,0.2l-0.3-0.2L147,194.6L147,194.6L147,194.6z"/>
<path class="st0" d="M157.9,195l0.1,0.1l0,0l-0.1,0l-0.1-0.1L157.9,195L157.9,195L157.9,195z"/>
<path class="st0" d="M159.3,195.3l0.3,0.2l-0.2,0.3l-0.3-0.2L159.3,195.3L159.3,195.3z"/>
<path class="st0" d="M148.9,195.4l0.2,0l-0.1,0.5l-0.3-0.2L148.9,195.4L148.9,195.4z"/>
<path class="st0" d="M129.5,196l0.3,0.2l0,0.2l-0.4,0.1V196L129.5,196L129.5,196L129.5,196z"/>
<path class="st0" d="M128.5,196.8l0.3,0.2v0.1l-0.3,0.2l-0.2-0.3L128.5,196.8L128.5,196.8L128.5,196.8z"/>
<path class="st0" d="M144.3,196.8l0.2,0.2l0,0.2l-0.2,0.2l-0.3-0.2L144.3,196.8L144.3,196.8L144.3,196.8L144.3,196.8z"/>
<path class="st0" d="M147.2,197l0.3,0.2v0.2l-0.2,0.1H147l-0.1-0.1L147.2,197L147.2,197L147.2,197L147.2,197z"/>
<path class="st0" d="M127.6,197.8l0.2,0l0.1,0.3l-0.3,0.2l-0.2-0.1L127.6,197.8L127.6,197.8z"/>
<path class="st0" d="M154.8,198.3h0.1l0,0.1l-0.1,0.1l0-0.1L154.8,198.3L154.8,198.3z"/>
<path class="st0" d="M144.6,199.1l0.1,0.1l-0.2,0.1L144.6,199.1L144.6,199.1L144.6,199.1L144.6,199.1z"/>
<path class="st0" d="M156.3,199.5l0.3,0.3l-0.2,0.2h0l-0.2-0.3L156.3,199.5L156.3,199.5z"/>
<path class="st0" d="M143.1,199.6l0.3,0.2l-0.2,0.3l-0.3-0.2L143.1,199.6L143.1,199.6L143.1,199.6L143.1,199.6z"/>
<path class="st0" d="M126.7,199.9l0.2,0l-0.1,0.5l-0.2,0l-0.1-0.3L126.7,199.9L126.7,199.9z"/>
<path class="st0" d="M187.4,200.3l50,101.1h0l-59.1-96.4L187.4,200.3L187.4,200.3L187.4,200.3z"/>
<path class="st0" d="M124.5,201.1l0.2,0l0.1,0.3l-0.2,0.2l-0.3-0.2v-0.2L124.5,201.1L124.5,201.1z"/>
<path class="st0" d="M137.8,201.7l0.2,0l0.1,0.1l0,0.2l-0.1,0.1l-0.3-0.2L137.8,201.7L137.8,201.7L137.8,201.7z"/>
<path class="st0" d="M128.5,202l0.3,0.3l-0.3,0.2l-0.2-0.3L128.5,202L128.5,202L128.5,202z"/>
<path class="st0" d="M149.3,202.1h0.1l0,0.1l-0.1,0.1l0-0.1L149.3,202.1L149.3,202.1z"/>
<path class="st0" d="M139.6,202.2l0.2,0l0.1,0.3l-0.2,0.2l-0.3-0.2L139.6,202.2L139.6,202.2z"/>
<path class="st0" d="M136.9,202.3l0.3,0.2l-0.2,0.3l-0.3-0.2L136.9,202.3L136.9,202.3L136.9,202.3z"/>
<path class="st0" d="M148,202.6l0.2,0l-0.4,0.3L148,202.6L148,202.6L148,202.6z"/>
<path class="st0" d="M122.2,202.6l0.1,0l0,0.5l-0.2,0l-0.1-0.3L122.2,202.6L122.2,202.6z"/>
<path class="st0" d="M157.3,202.7l0.2,0l0.1,0.4l-0.2,0.1l-0.3-0.2L157.3,202.7L157.3,202.7L157.3,202.7z"/>
<path class="st0" d="M151.8,202.7l0.2,0l0.1,0.2l-0.2,0.3l-0.3-0.2l0.1-0.3L151.8,202.7L151.8,202.7L151.8,202.7z"/>
<path class="st0" d="M88.6,203l11.8,17.1l3.3-2.2l1.4,2l-1,0.9l1.4,1.6l-7.4,6.1l-1.5-1.7l-0.3,0.4l-2.9-3.4l0.9-0.7l-1.4-2
	l-1.8,1.5l0.2,0.3l-4.9,4.2l-2.7-3.4l0.7-0.7l-4-5l1-0.9h0l-1.7-2l-4.4,3.5l-4-4.9l6.8-5.3l0.1,0l2.1-2l1,1L88.6,203L88.6,203z"/>
<path class="st0" d="M146.6,203.1l0.3,0.2l0,0.3l-0.1,0.1l-0.3-0.2v-0.2L146.6,203.1L146.6,203.1L146.6,203.1z"/>
<path class="st0" d="M138.2,203.3l0.3,0.2l-0.2,0.3l-0.3-0.3L138.2,203.3L138.2,203.3L138.2,203.3z"/>
<path class="st0" d="M135.3,203.5l0.2,0l0.1,0.2l-0.2,0.3l-0.3-0.1l0-0.2L135.3,203.5L135.3,203.5z"/>
<path class="st0" d="M158,203.9l0.3,0.2l-0.2,0.3l-0.2,0l-0.1-0.4L158,203.9L158,203.9L158,203.9z"/>
<path class="st0" d="M120.2,204.1l0.2,0.1l0.1,0.3l-0.1,0.1h-0.2l-0.2-0.2v-0.2L120.2,204.1L120.2,204.1L120.2,204.1z"/>
<path class="st0" d="M144.6,204.1l0.3,0.2v0.2l-0.2,0.2l-0.3-0.2L144.6,204.1L144.6,204.1L144.6,204.1z"/>
<path class="st0" d="M130.2,204.2l0.2,0l0.1,0.2l-0.3,0.3l-0.2-0.1L130.2,204.2L130.2,204.2L130.2,204.2z"/>
<path class="st0" d="M137.2,204.4L137.2,204.4l0.1,0.1l-0.1,0.1L137.2,204.4L137.2,204.4L137.2,204.4L137.2,204.4z"/>
<path class="st0" d="M133.5,204.6l0.3,0.2l-0.2,0.3l-0.3-0.3L133.5,204.6L133.5,204.6L133.5,204.6z"/>
<path class="st0" d="M136.3,204.7l0.2,0l0.1,0.2l-0.2,0.3h-0.1l-0.2-0.4L136.3,204.7L136.3,204.7L136.3,204.7z"/>
<path class="st0" d="M153.3,205l0.2,0l0.2,0.3l-0.2,0.2h-0.2l-0.2-0.2L153.3,205L153.3,205z"/>
<path class="st0" d="M159.3,205.5l0.2,0l0.1,0.2l0,0.2l-0.1,0.1l-0.2,0l-0.1-0.3L159.3,205.5L159.3,205.5L159.3,205.5z"/>
<path class="st0" d="M126.8,205.6l0.3,0.2l0,0.2l-0.3,0.2l-0.2-0.1L126.8,205.6L126.8,205.6L126.8,205.6z"/>
<path class="st0" d="M134.1,205.8l0.3,0.2l0,0.3l-0.3,0.1l-0.2-0.3L134.1,205.8L134.1,205.8L134.1,205.8z"/>
<path class="st0" d="M147.6,206.5l0.1,0l0.2,0.3l-0.1,0.2l-0.3-0.1L147.6,206.5L147.6,206.5L147.6,206.5z"/>
<path class="st0" d="M124.4,206.9l0.2,0.1l0.1,0.3l-0.1,0.2l-0.5-0.2L124.4,206.9L124.4,206.9z"/>
<path class="st0" d="M141,206.9l0.3,0.2l-0.2,0.4l-0.3-0.3L141,206.9L141,206.9L141,206.9z"/>
<path class="st0" d="M118.1,207l0.3,0.3l-0.1,0.1l-0.3-0.3L118.1,207L118.1,207z"/>
<path class="st0" d="M128.8,207.2l0.3,0.2v0.3l-0.4,0.1l-0.1-0.3L128.8,207.2L128.8,207.2L128.8,207.2z"/>
<path class="st0" d="M160.3,207.2l0.3,0.3l-0.3,0.2l-0.2-0.2l0-0.2L160.3,207.2L160.3,207.2L160.3,207.2z"/>
<path class="st0" d="M117.7,207.2l0.2,0l-0.2,0.4l-0.1-0.3L117.7,207.2L117.7,207.2L117.7,207.2z"/>
<path class="st0" d="M149.1,207.2l0.2,0l0.1,0.1l-0.2,0.3l-0.3,0l-0.1-0.1L149.1,207.2L149.1,207.2L149.1,207.2z"/>
<path class="st0" d="M175.4,207.4l59,95.1l-11.7,7.1L166,215.3L175.4,207.4L175.4,207.4L175.4,207.4z"/>
<path class="st0" d="M133,207.4L133,207.4l0.2,0.1l-0.1,0.1H133L133,207.4L133,207.4z"/>
<path class="st0" d="M117.1,207.5l0.2,0.1v0.2l-0.2,0.1V207.5L117.1,207.5z"/>
<path class="st0" d="M154.8,207.7l0.2,0l0.1,0.2l-0.2,0.3l-0.3-0.2L154.8,207.7L154.8,207.7L154.8,207.7z"/>
<path class="st0" d="M123.2,207.7l0.2,0.1l0.1,0.3l-0.4,0.3l-0.2-0.4L123.2,207.7L123.2,207.7L123.2,207.7z"/>
<path class="st0" d="M125.1,207.9l0.3,0l0.1,0.3l-0.1,0.1l-0.3,0.1l-0.1-0.1l-0.1-0.3L125.1,207.9L125.1,207.9L125.1,207.9z"/>
<path class="st0" d="M144.4,208l1.4,2.1h0l0.2-0.3l0.3,0.2l-0.1,0.3h-0.3l1.1,1.7l-2.4,1.5l0.3,0.5l1.6-0.9l1.9,2.7l0.9-0.5l0.5,0.8
	l-0.8,0.6l1.9,2.8l-19,13.6l-3.1-3.2l2.1-2l-1.4-1.7l2.4-2.2l1.5,1.8l0.4-0.5l-2.7-2.8l-4.9,3.6l-2.4-3.3l4.4-3.4l-0.1-0.4
	L144.4,208L144.4,208L144.4,208z"/>
<path class="st0" d="M92.5,208l0.3,0.2l-0.2,0.3l-0.2,0l-0.1-0.4L92.5,208L92.5,208L92.5,208z"/>
<path class="st0" d="M116.5,208l0.2,0.1l-0.3,0.3l-0.1-0.3L116.5,208L116.5,208L116.5,208z"/>
<path class="st0" d="M127.1,208.1h0.1l0.1,0.3H127L127.1,208.1L127.1,208.1L127.1,208.1z"/>
<path class="st0" d="M116.1,208.3l0.2,0.1l0,0.2l-0.2,0.1l-0.1-0.3L116.1,208.3L116.1,208.3L116.1,208.3z"/>
<path class="st0" d="M138.7,208.5l0.2,0.2l0,0.2l-0.1,0.2l-0.4-0.1L138.7,208.5L138.7,208.5L138.7,208.5z"/>
<path class="st0" d="M115.5,208.6h0.2l0.1,0.3l0,0L115.5,208.6L115.5,208.6z"/>
<path class="st0" d="M124,208.8l0.1,0l0.2,0.4l-0.3,0.2l-0.2-0.5L124,208.8L124,208.8L124,208.8z"/>
<path class="st0" d="M125.8,208.9l0.2,0l0.2,0.3l-0.5,0.2l-0.1-0.3L125.8,208.9L125.8,208.9L125.8,208.9z"/>
<path class="st0" d="M161.2,209l0.2,0l0.1,0.2l-0.2,0.3l-0.3-0.3L161.2,209L161.2,209L161.2,209z"/>
<path class="st0" d="M137,209.4l0.2,0l0.1,0.2l-0.2,0.3l-0.3,0l-0.1-0.3L137,209.4L137,209.4L137,209.4z"/>
<path class="st0" d="M148.9,209.4l0.3,0.1l0,0.2l-0.1,0.2h-0.1l-0.2-0.3L148.9,209.4L148.9,209.4L148.9,209.4z"/>
<path class="st0" d="M124.7,209.7l0.3,0.1l0.1,0.3l-0.4,0.2l-0.2-0.4L124.7,209.7L124.7,209.7L124.7,209.7z"/>
<path class="st0" d="M136.8,209.9h0.1l0,0.1l-0.1,0.1V209.9L136.8,209.9z"/>
<path class="st0" d="M156.4,210.2l0.3,0.2v0.2l-0.2,0.2l-0.3-0.2L156.4,210.2L156.4,210.2z"/>
<path class="st0" d="M136.2,210.3l0.2,0l-0.4,0.3l0-0.2L136.2,210.3L136.2,210.3L136.2,210.3z"/>
<path class="st0" d="M135.2,210.6l0.3,0.2l-0.2,0.3L135.2,210.6L135.2,210.6L135.2,210.6L135.2,210.6z"/>
<path class="st0" d="M146.9,211l0.3,0l-0.2,0.5l-0.2-0.2L146.9,211L146.9,211z"/>
<path class="st0" d="M104.8,211.3l0.3,0.2v0.2l-0.2,0.2l-0.3-0.2l0-0.2L104.8,211.3L104.8,211.3z"/>
<path class="st0" d="M150.4,211.4l0.3,0.2l-0.2,0.3l-0.3-0.2v-0.2L150.4,211.4L150.4,211.4z"/>
<path class="st0" d="M134.4,211.5l0.2,0l-0.1,0.5l-0.3-0.1L134.4,211.5L134.4,211.5L134.4,211.5z"/>
<path class="st0" d="M154.3,211.5l0.2,0l-0.1,0.5l-0.2,0L154.3,211.5L154.3,211.5z"/>
<path class="st0" d="M126.4,211.5L126.4,211.5l0.1,0.2l-0.1,0.1l-0.1-0.1L126.4,211.5L126.4,211.5L126.4,211.5z"/>
<path class="st0" d="M125.6,211.9l0.1,0.2l-0.1,0.1L125.6,211.9L125.6,211.9L125.6,211.9L125.6,211.9z"/>
<path class="st0" d="M133.5,212l0.2,0.2l0,0.2l-0.2,0.2l-0.3-0.1l-0.1-0.1L133.5,212L133.5,212L133.5,212L133.5,212z"/>
<path class="st0" d="M122.5,212.1h0.1l0,0.1l-0.1,0.1L122.5,212.1L122.5,212.1L122.5,212.1z"/>
<path class="st0" d="M132.3,212.5l0.2,0l-0.1,0.5l-0.3-0.2L132.3,212.5L132.3,212.5L132.3,212.5z"/>
<path class="st0" d="M158,213l0.3,0l0.1,0.3l-0.3,0.2l-0.2-0.2L158,213L158,213L158,213z"/>
<path class="st0" d="M151.6,213l0.3,0.3l-0.2,0.2l-0.3-0.2L151.6,213L151.6,213L151.6,213L151.6,213z"/>
<path class="st0" d="M120.9,213.1L120.9,213.1l0.1,0.2l-0.1,0l0,0L120.9,213.1L120.9,213.1L120.9,213.1z"/>
<path class="st0" d="M124.1,213.1l0.1,0l0,0.1l-0.1,0.1L124.1,213.1L124.1,213.1L124.1,213.1L124.1,213.1z"/>
<path class="st0" d="M113.3,213.2l0.2,0.3l-0.2,0.1l-0.1-0.3L113.3,213.2L113.3,213.2z"/>
<path class="st0" d="M106.6,213.6l0.2,0.2l0,0.2l-0.2,0.2l-0.3-0.2l0-0.2L106.6,213.6L106.6,213.6L106.6,213.6z"/>
<path class="st0" d="M118.3,214.4l0.4,0.5l-0.1,0.1L118.3,214.4L118.3,214.4L118.3,214.4L118.3,214.4z"/>
<path class="st0" d="M131.3,214.4h0.1l0,0.1l-0.1,0.1l0-0.1L131.3,214.4L131.3,214.4L131.3,214.4z"/>
<path class="st0" d="M111.4,214.6l0.2,0.3l-0.2,0.1l-0.1-0.3L111.4,214.6L111.4,214.6z"/>
<path class="st0" d="M98.4,214.6l0.2,0l0.1,0.3l-0.1,0.2l-0.3-0.3L98.4,214.6L98.4,214.6z"/>
<path class="st0" d="M128.5,214.9l0.2,0l0.1,0.3l-0.1,0.2l-0.3-0.1l0-0.2L128.5,214.9L128.5,214.9z"/>
<path class="st0" d="M130.3,214.9l0.1,0.2l-0.1,0.1L130.3,214.9L130.3,214.9L130.3,214.9z"/>
<path class="st0" d="M114.4,214.9l0.2,0.3l-0.2,0.1l-0.1-0.3L114.4,214.9L114.4,214.9z"/>
<path class="st0" d="M121.4,214.9l0.1,0l0,0.1l-0.1,0.1L121.4,214.9L121.4,214.9L121.4,214.9L121.4,214.9z"/>
<path class="st0" d="M120.8,215.4l0.2,0.1l-0.2,0.3l-0.1-0.3L120.8,215.4L120.8,215.4z"/>
<path class="st0" d="M110.1,215.5L110.1,215.5l0.1,0.2l-0.1,0L110.1,215.5L110.1,215.5L110.1,215.5L110.1,215.5z"/>
<path class="st0" d="M127.4,215.5l0.2,0l0.1,0.3l-0.2,0.2l-0.3-0.2L127.4,215.5L127.4,215.5L127.4,215.5z"/>
<path class="st0" d="M112.3,215.9l0.2,0.3l-0.2,0.1l-0.1-0.3L112.3,215.9L112.3,215.9z"/>
<path class="st0" d="M107.7,215.9l0.3,0.2l-0.4,0.3L107.7,215.9L107.7,215.9L107.7,215.9z"/>
<path class="st0" d="M121.1,215.9h0.1l0,0.1l0,0h-0.2L121.1,215.9L121.1,215.9L121.1,215.9z"/>
<path class="st0" d="M120.4,216.1L120.4,216.1l0.1,0.1l-0.1,0.1L120.4,216.1L120.4,216.1L120.4,216.1L120.4,216.1z"/>
<path class="st0" d="M66.9,216.2l0.3,0.2l0,0.3l-0.3,0.1l-0.2-0.3L66.9,216.2L66.9,216.2z"/>
<path class="st0" d="M110.3,217L110.3,217l0.1,0.2l-0.1,0l0,0L110.3,217L110.3,217L110.3,217L110.3,217z"/>
<path class="st0" d="M119.1,217L119.1,217l0.2,0.1l-0.2,0.1L119.1,217L119.1,217z"/>
<path class="st0" d="M125.5,217.1l0.3,0.2l0,0.3l-0.3,0.1l-0.2-0.3L125.5,217.1L125.5,217.1L125.5,217.1z"/>
<path class="st0" d="M163,217.3l0.3,0.2l-0.2,0.3h-0.2l-0.1-0.1v-0.2L163,217.3L163,217.3L163,217.3z"/>
<path class="st0" d="M166.3,217.3l0.2,0l0.1,0.3l-0.1,0.2l-0.3-0.4L166.3,217.3L166.3,217.3L166.3,217.3z"/>
<path class="st0" d="M103.1,217.4l0.1,0l0,0.1l-0.2,0L103.1,217.4L103.1,217.4L103.1,217.4z"/>
<path class="st0" d="M110.8,217.4h0.1l0,0.1l-0.1,0.1l0-0.1L110.8,217.4L110.8,217.4z"/>
<path class="st0" d="M118,217.4l0.2,0.1l-0.4,0.1L118,217.4L118,217.4L118,217.4z"/>
<path class="st0" d="M161.8,217.5L161.8,217.5l1.3,2.3l0.4-0.2l54.8,91.6l-31.1,0.1L169.7,284l0.4-0.4l-31.4-47.4l0.1-0.4l-1.7-2.1
	L161.8,217.5L161.8,217.5L161.8,217.5z"/>
<path class="st0" d="M104.1,217.6l0.1,0v0.2l-0.1,0L104.1,217.6L104.1,217.6L104.1,217.6z"/>
<path class="st0" d="M163.9,218.3l0.3,0.2l-0.3,0.3l-0.2-0.4L163.9,218.3L163.9,218.3z"/>
<path class="st0" d="M124,218.4l0.2,0.5l-0.2,0.1l-0.2-0.3L124,218.4L124,218.4z"/>
<path class="st0" d="M116.9,218.8l0.1,0v0.2l-0.1,0L116.9,218.8L116.9,218.8L116.9,218.8z"/>
<path class="st0" d="M111.7,219.1l0.3,0.3l-0.3,0.2l-0.2-0.3L111.7,219.1L111.7,219.1L111.7,219.1z"/>
<path class="st0" d="M168.1,219.5l0.3,0.2l-0.5,0L168.1,219.5L168.1,219.5z"/>
<path class="st0" d="M70.2,219.6l0.2,0l0.1,0.3l-0.2,0.2l-0.3-0.2l0-0.3L70.2,219.6L70.2,219.6z"/>
<path class="st0" d="M123,219.7h0.1l0,0.1l0,0H123L123,219.7L123,219.7L123,219.7z"/>
<path class="st0" d="M115.3,220.1L115.3,220.1l0.2,0.1l-0.1,0.1L115.3,220.1L115.3,220.1L115.3,220.1z"/>
<path class="st0" d="M165.3,220.2l0.3,0.3l-0.2,0.2h-0.2l-0.2-0.2L165.3,220.2L165.3,220.2L165.3,220.2L165.3,220.2z"/>
<path class="st0" d="M120.6,221l0.2,0l0.1,0.3l-0.2,0.2l-0.3-0.2L120.6,221L120.6,221z"/>
<path class="st0" d="M111.2,221.4L111.2,221.4l0.1,0.2l-0.2,0L111.2,221.4L111.2,221.4L111.2,221.4z"/>
<path class="st0" d="M112.8,221.7l0.1,0.2l-0.1,0L112.8,221.7L112.8,221.7L112.8,221.7L112.8,221.7z"/>
<path class="st0" d="M107.7,222.2L107.7,222.2l0.1,0.2l-0.1,0l-0.1-0.1L107.7,222.2L107.7,222.2L107.7,222.2z"/>
<path class="st0" d="M107.6,222.6L107.6,222.6l0.1,0.2l-0.2,0L107.6,222.6L107.6,222.6L107.6,222.6z"/>
<path class="st0" d="M68,222.9l0.3,0.3l-0.1,0.2l-0.4-0.2L68,222.9L68,222.9L68,222.9L68,222.9z"/>
<path class="st0" d="M73.3,223.3l0.2,0l0.1,0.3l-0.2,0.2l-0.3-0.2l0-0.3L73.3,223.3L73.3,223.3L73.3,223.3z"/>
<path class="st0" d="M166.9,223.3l0.2,0l0.1,0.2l-0.2,0.3l-0.3-0.4L166.9,223.3L166.9,223.3L166.9,223.3z"/>
<path class="st0" d="M107.1,223.6l0.2,0l0.1,0.3l-0.1,0.1l-0.3-0.2v-0.1L107.1,223.6L107.1,223.6z"/>
<path class="st0" d="M117.8,224.1L117.8,224.1l0.1,0.2l-0.2,0L117.8,224.1L117.8,224.1L117.8,224.1L117.8,224.1z"/>
<path class="st0" d="M122.3,224.1l0.2,0l0.1,0.1l-0.3,0.4l-0.1-0.4L122.3,224.1L122.3,224.1L122.3,224.1z"/>
<path class="st0" d="M120.3,224.3l3.4,3.9l0,0.1l6.3,7.3l-8.6,7.1l0.2,3.7l12.6-9.8l49.5,77.9l0,0l-55.3-3.7l1.2-3.6l-2.5-3.5
	l0.6-0.7l-4.4-5.9l0.9-0.7l-4.8-5.8l0.9-0.8l-4.6-5.7l0.9-0.8l-4.2-5.1l0.8-0.9l-3.1-2.9l2.2-2l-1-0.9l-1.4,1.1l-2.1-2.1l1.3-0.9
	l-1.7-2.1l0.8-0.6l-1.4-1.7l0.9-0.8l-1.6-1.7l0.9-0.8l-1.5-1.7l0.8-0.7l-1.4-1.6l1.2-1l-10.5-12.7l17.2-14l2.2,2.7l1.8-1.4l-2.2-2.7
	L120.3,224.3L120.3,224.3L120.3,224.3z"/>
<path class="st0" d="M107.7,224.4l0.3,0.2l-0.2,0.3l-0.3-0.1l0.1-0.3L107.7,224.4L107.7,224.4z"/>
<path class="st0" d="M115.3,224.9l0.3,0l-0.4,0.3L115.3,224.9L115.3,224.9L115.3,224.9z"/>
<path class="st0" d="M171.6,224.9l0.3,0.1l0.1,0.2l-0.2,0.2l-0.2,0l-0.1-0.1L171.6,224.9L171.6,224.9z"/>
<path class="st0" d="M104,225.1l0.3,0.3l-0.2,0.2l-0.3-0.2L104,225.1L104,225.1L104,225.1L104,225.1z"/>
<path class="st0" d="M168.3,225.9l0.3,0.2l-0.2,0.3l-0.3-0.1l-0.1-0.2L168.3,225.9L168.3,225.9L168.3,225.9z"/>
<path class="st0" d="M102.8,226l0.2,0l0.1,0.1l-0.5,0.2l0-0.2L102.8,226L102.8,226z"/>
<path class="st0" d="M91.6,226.1l0.3,0.2l-0.4,0.3l-0.1-0.1l0.1-0.3L91.6,226.1L91.6,226.1L91.6,226.1z"/>
<path class="st0" d="M106.3,226.3l0.2,0l0.1,0.3l-0.2,0.2l-0.3-0.2L106.3,226.3L106.3,226.3z"/>
<path class="st0" d="M94,226.8l0.2,0l0.1,0.3l-0.2,0.2l-0.3-0.2l0-0.3L94,226.8L94,226.8z"/>
<path class="st0" d="M112.9,226.8l0.3,0.2l-0.2,0.3h-0.2l-0.2-0.3L112.9,226.8L112.9,226.8L112.9,226.8z"/>
<path class="st0" d="M101.6,227l0.3,0.2l0,0.2l-0.4,0.1l-0.1-0.3L101.6,227L101.6,227L101.6,227z"/>
<path class="st0" d="M77.1,227.1l0.2,0l-0.1,0.5l-0.2,0l-0.1-0.3L77.1,227.1L77.1,227.1z"/>
<path class="st0" d="M104.9,227.2l0.3,0.2l-0.2,0.3l-0.3-0.4L104.9,227.2L104.9,227.2L104.9,227.2z"/>
<path class="st0" d="M72.9,228l0.2,0l0.1,0.3l-0.2,0.2l-0.3-0.2L72.9,228L72.9,228L72.9,228z"/>
<path class="st0" d="M88.5,228.2l0.3,0.2l-0.4,0.3l-0.1-0.1L88.5,228.2L88.5,228.2L88.5,228.2L88.5,228.2z"/>
<path class="st0" d="M100.6,228.4l0.3,0.2v0.2l-0.3,0.2l-0.2-0.2l0-0.1L100.6,228.4L100.6,228.4L100.6,228.4z"/>
<path class="st0" d="M103.3,228.4l0.2,0l0.1,0.2l-0.2,0.3l-0.3-0.2v-0.1L103.3,228.4L103.3,228.4z"/>
<path class="st0" d="M126.8,228.4l0.3,0l-0.4,0.3L126.8,228.4L126.8,228.4L126.8,228.4z"/>
<path class="st0" d="M110.9,228.7l0.2,0.1l-0.3,0.4L110.9,228.7L110.9,228.7L110.9,228.7L110.9,228.7z"/>
<path class="st0" d="M173.5,228.7l0.3,0.2v0.1l-0.3,0.2l-0.2-0.3L173.5,228.7L173.5,228.7L173.5,228.7z"/>
<path class="st0" d="M96.7,228.8l0.3,0.2l-0.1,0.3l-0.3-0.2L96.7,228.8L96.7,228.8z"/>
<path class="st0" d="M99,229.1l0.2,0l-0.4,0.3v-0.2L99,229.1L99,229.1L99,229.1z"/>
<path class="st0" d="M91.6,229.2l0.3,0l-0.1,0.5l-0.2,0l-0.1-0.1L91.6,229.2L91.6,229.2L91.6,229.2z"/>
<path class="st0" d="M79.3,229.3l0.3,0.2l-0.2,0.3l-0.3-0.2v-0.2L79.3,229.3L79.3,229.3L79.3,229.3z"/>
<path class="st0" d="M114,229.5L114,229.5l0.2,0.2l-0.6,0.4l-0.1-0.2L114,229.5L114,229.5L114,229.5z"/>
<path class="st0" d="M95.6,229.9l0.3,0.2l-0.4,0.3l-0.1-0.2v-0.2L95.6,229.9L95.6,229.9L95.6,229.9z"/>
<path class="st0" d="M101.7,229.9l0.3,0.2l-0.4,0.3l-0.1-0.2l0.1-0.3L101.7,229.9L101.7,229.9L101.7,229.9z"/>
<path class="st0" d="M90,231l0.4,0.4l-0.6,0.2l-0.2-0.3L90,231L90,231L90,231z"/>
<path class="st0" d="M100.4,231l0.2,0l-0.1,0.5l-0.3-0.2L100.4,231L100.4,231z"/>
<path class="st0" d="M76.2,231.4l0.2,0l-0.1,0.5l-0.3-0.4L76.2,231.4L76.2,231.4L76.2,231.4z"/>
<path class="st0" d="M92.1,231.5l0.2,0l0.2,0.3l-0.2,0.2l-0.3-0.2L92.1,231.5L92.1,231.5z"/>
<path class="st0" d="M95.9,231.5l0.3,0.2L96,232h-0.2l-0.1-0.5L95.9,231.5L95.9,231.5z"/>
<path class="st0" d="M81.8,231.8l0.2,0l-0.1,0.5l-0.3-0.3L81.8,231.8L81.8,231.8L81.8,231.8z"/>
<path class="st0" d="M91.5,231.9l0.3,0.2l-0.2,0.3h-0.1l-0.2-0.3L91.5,231.9L91.5,231.9L91.5,231.9z"/>
<path class="st0" d="M129.9,231.9l0.3,0l-0.2,0.5l-0.2-0.3L129.9,231.9L129.9,231.9z"/>
<path class="st0" d="M94.6,232l0.2,0l0.1,0.1l-0.2,0.3l-0.3-0.2L94.6,232L94.6,232L94.6,232z"/>
<path class="st0" d="M89,232.9l0.3,0.2v0.2l-0.2,0.2l-0.3-0.2L89,232.9L89,232.9z"/>
<path class="st0" d="M105.7,232.9l0.3,0.2l-0.2,0.4l-0.3-0.2L105.7,232.9L105.7,232.9z"/>
<path class="st0" d="M98.6,233l0.2,0l0.1,0.3l-0.1,0.1l-0.4-0.3L98.6,233L98.6,233z"/>
<path class="st0" d="M78.1,233.4l0.3,0.2l-0.3,0.3l-0.2-0.2v-0.2L78.1,233.4L78.1,233.4z"/>
<path class="st0" d="M92.4,233.7l0.9,1L92,236l-0.8-1L92.4,233.7L92.4,233.7L92.4,233.7z"/>
<path class="st0" d="M84.4,234l0.2,0.2l0,0.2l-0.3,0.2l-0.2-0.2L84.4,234L84.4,234L84.4,234z"/>
<path class="st0" d="M96.7,234.4l0.2,0l0.1,0.2l-0.2,0.3l-0.3-0.1l0-0.2L96.7,234.4L96.7,234.4L96.7,234.4z"/>
<path class="st0" d="M103.5,235.8h0.1l0,0.1l-0.1,0.1l0,0L103.5,235.8L103.5,235.8L103.5,235.8z"/>
<path class="st0" d="M95.4,236l0.3,0.1l-0.1,0.4l-0.3-0.2L95.4,236L95.4,236L95.4,236z"/>
<path class="st0" d="M91,236l0.3,0.2v0.2l-0.3,0.2l-0.2-0.3L91,236L91,236z"/>
<path class="st0" d="M102.1,236.1l0.3,0.2l-0.5,0L102.1,236.1L102.1,236.1z"/>
<path class="st0" d="M137.7,236.3l0.2,0v0.5l-0.3-0.2L137.7,236.3L137.7,236.3L137.7,236.3z"/>
<path class="st0" d="M90,237l0.2,0l0.1,0.3l-0.3,0.2l-0.1,0l-0.1-0.3L90,237L90,237L90,237z"/>
<path class="st0" d="M87.7,237.2l0.2,0l-0.1,0.5l-0.3-0.2L87.7,237.2L87.7,237.2z"/>
<path class="st0" d="M93.9,237.3l0.2,0l0,0.5l-0.3-0.2L93.9,237.3L93.9,237.3L93.9,237.3z"/>
<path class="st0" d="M98.4,238.7l0.3,0.2l-0.2,0.3l-0.3-0.2L98.4,238.7L98.4,238.7z"/>
<path class="st0" d="M139.7,239.3l0.2,0l-0.1,0.5l-0.2,0L139.7,239.3L139.7,239.3z"/>
<path class="st0" d="M88.6,239.8l0.1,0l0,0.1l-0.1,0.1L88.6,239.8L88.6,239.8L88.6,239.8z"/>
<path class="st0" d="M90.3,240.4L90.3,240.4l0.1,0.2l-0.1,0l0,0L90.3,240.4L90.3,240.4z"/>
<path class="st0" d="M96.3,240.5l0.3,0.2l0,0.2l-0.3,0.2l-0.2-0.1L96.3,240.5L96.3,240.5L96.3,240.5L96.3,240.5z"/>
<path class="st0" d="M86.7,242.4h0.1l0,0.1l0,0h-0.2L86.7,242.4L86.7,242.4z"/>
<path class="st0" d="M142.3,242.9l0.2,0l0.1,0.3l-0.3,0.2l0,0l-0.1-0.3L142.3,242.9L142.3,242.9L142.3,242.9z"/>
<path class="st0" d="M93.2,243.7l0-0.1h0.2l0,0.1l-0.3,0.2l-0.1-0.1L93.2,243.7L93.2,243.7z"/>
<path class="st0" d="M86.6,244l0.3,0.2l-0.1,0.3l-0.2,0l-0.1-0.1L86.6,244L86.6,244z"/>
<path class="st0" d="M92,245l0.1,0l0,0.1l-0.1,0.1l0,0L92,245L92,245z"/>
<path class="st0" d="M91.7,245.3l0.1,0.2l0,0l-0.1,0L91.7,245.3L91.7,245.3L91.7,245.3L91.7,245.3z"/>
<path class="st0" d="M92.7,245.7l0.3,0.2l0,0.3l-0.1,0.1l-0.3,0L92.7,245.7L92.7,245.7L92.7,245.7z"/>
<path class="st0" d="M86.8,245.9l0.2,0l0.1,0.1l-0.5,0L86.8,245.9L86.8,245.9z"/>
<path class="st0" d="M91.2,246.1L91.2,246.1l0.1,0.2l-0.1,0L91.2,246.1L91.2,246.1L91.2,246.1z"/>
<path class="st0" d="M85.4,246.5l0.2,0l-0.1,0.5l-0.2,0l-0.1-0.2L85.4,246.5L85.4,246.5z"/>
<path class="st0" d="M89.2,247.9l0.3,0.1l0,0.2l-0.2,0.2l-0.3-0.2L89.2,247.9L89.2,247.9L89.2,247.9z"/>
<path class="st0" d="M84,248l0.2,0.1l0.1,0.3l-0.1,0.1H84L84,248L84,248L84,248z"/>
<path class="st0" d="M85.3,248.1l0.2,0l0.1,0.3l-0.2,0.2l-0.3-0.2L85.3,248.1L85.3,248.1z"/>
<path class="st0" d="M96.3,248.9l0.2,0l0.1,0.1l-0.3,0.4l-0.1-0.4L96.3,248.9L96.3,248.9L96.3,248.9z"/>
<path class="st0" d="M83.9,250.1l0.2,0l0.1,0.3l-0.1,0.1l-0.3,0L83.9,250.1L83.9,250.1z"/>
<path class="st0" d="M87.5,250.5l0.3,0.2v0.1l-0.3,0.2l-0.2-0.3L87.5,250.5L87.5,250.5z"/>
<path class="st0" d="M82,250.6l0.3,0l-0.1,0.5l-0.2,0l-0.1-0.1L82,250.6L82,250.6L82,250.6z"/>
<path class="st0" d="M97.8,250.9l0.3,0.3l-0.3,0.2L97.8,250.9L97.8,250.9L97.8,250.9L97.8,250.9z"/>
<path class="st0" d="M93.7,251.4l0.2,0l0.1,0.3l-0.1,0.2l-0.3-0.1l-0.1-0.2L93.7,251.4L93.7,251.4L93.7,251.4z"/>
<path class="st0" d="M82.1,252.3l0.3,0.2v0.2l-0.2,0.2l-0.3-0.2l0-0.2L82.1,252.3L82.1,252.3z"/>
<path class="st0" d="M93.2,252.5l0.2,0l0.1,0.1l-0.2,0.3l-0.3,0l-0.1-0.3L93.2,252.5L93.2,252.5L93.2,252.5z"/>
<path class="st0" d="M99.6,253l0.3,0.2v0.2l-0.2,0.2l-0.3-0.2L99.6,253L99.6,253L99.6,253z"/>
<path class="st0" d="M80.2,253l0.2,0.2l0,0.2l-0.2,0.2L80.2,253L80.2,253L80.2,253L80.2,253z"/>
<path class="st0" d="M85.8,253.1l0.2,0.4l-0.3,0.1l-0.2-0.2L85.8,253.1L85.8,253.1L85.8,253.1L85.8,253.1z"/>
<path class="st0" d="M96.3,254.3l0.3,0.2v0.2l-0.1,0.1l-0.4-0.3L96.3,254.3L96.3,254.3L96.3,254.3z"/>
<path class="st0" d="M100.8,254.9l0.2,0l0.1,0.2l-0.2,0.3l-0.3-0.1l0-0.3L100.8,254.9L100.8,254.9L100.8,254.9z"/>
<path class="st0" d="M77.8,255.1l0.3,0l0.1,0.1l-0.3,0.3l-0.2-0.4L77.8,255.1L77.8,255.1z"/>
<path class="st0" d="M79.9,255.4l0.2,0l-0.1,0.5l-0.2,0L79.9,255.4L79.9,255.4z"/>
<path class="st0" d="M84.1,255.5l0.3,0.2v0.2l-0.2,0.2l-0.3-0.2L84.1,255.5L84.1,255.5L84.1,255.5z"/>
<path class="st0" d="M78.4,257.2l0.2,0v0.4l-0.2,0l-0.2-0.1l0-0.2L78.4,257.2L78.4,257.2L78.4,257.2z"/>
<path class="st0" d="M98.2,257.5l0.2,0l0.1,0.2l-0.2,0.3l-0.3-0.2L98.2,257.5L98.2,257.5z"/>
<path class="st0" d="M82.6,257.6l0.3,0.3l-0.1,0.2l-0.4-0.1L82.6,257.6L82.6,257.6L82.6,257.6L82.6,257.6z"/>
<path class="st0" d="M74.2,258.5l0.2,0l0.1,0.1l-0.2,0.3h-0.1l-0.2-0.3L74.2,258.5L74.2,258.5L74.2,258.5z"/>
<path class="st0" d="M88.6,258.9l0.2,0.2l0,0.2l-0.3,0.2L88.6,258.9L88.6,258.9L88.6,258.9L88.6,258.9z"/>
<path class="st0" d="M76.3,259L76.3,259l0.1,0.2l-0.1,0V259L76.3,259z"/>
<path class="st0" d="M76.7,259.2L76.7,259.2l0.2,0.1l-0.1,0.1L76.7,259.2L76.7,259.2z"/>
<path class="st0" d="M77,259.8L77,259.8l0.1,0.1l-0.2,0L77,259.8L77,259.8L77,259.8z"/>
<path class="st0" d="M81.2,260l0.3,0.2l0,0.2l-0.1,0.1l-0.2,0L81.2,260L81.2,260L81.2,260z"/>
<path class="st0" d="M72.3,260.2l0.2,0l0.1,0.3l-0.3,0.2l-0.2-0.1l0-0.3L72.3,260.2L72.3,260.2z"/>
<path class="st0" d="M104,260.4l0.2,0l0.1,0.3l-0.2,0.2l-0.3-0.2L104,260.4L104,260.4z"/>
<path class="st0" d="M86.5,260.6l0.2,0l0.1,0.1l-0.2,0.3l-0.3-0.2L86.5,260.6L86.5,260.6z"/>
<path class="st0" d="M90.1,260.9l0.3,0.2v0.2l-0.3,0.2l-0.1,0l-0.1-0.3L90.1,260.9L90.1,260.9L90.1,260.9z"/>
<path class="st0" d="M88,262.4l0.2,0l0.1,0.4l-0.2,0.1l-0.3-0.2l0-0.3L88,262.4L88,262.4z"/>
<path class="st0" d="M80.3,263.2l0.3,0l0.1,0.1l-0.3,0.3L80.3,263.2L80.3,263.2z"/>
<path class="st0" d="M105,263.6l0.2,0v0.5l-0.3-0.2L105,263.6L105,263.6L105,263.6z"/>
<path class="st0" d="M93.3,263.9l0.3,0.2l-0.2,0.3l-0.3-0.2L93.3,263.9L93.3,263.9L93.3,263.9L93.3,263.9z"/>
<path class="st0" d="M101.7,264.5l0.3,0.2l-0.1,0.3h-0.2l-0.2-0.2L101.7,264.5L101.7,264.5z"/>
<path class="st0" d="M91.6,265.6l0.3,0.2l-0.2,0.3l-0.3-0.4L91.6,265.6L91.6,265.6L91.6,265.6z"/>
<path class="st0" d="M94.8,266.2l0.3,0.2l-0.3,0.3l-0.1,0l-0.1-0.3L94.8,266.2L94.8,266.2z"/>
<path class="st0" d="M80.3,266.7l0.3,0.2l-0.2,0.3l-0.3-0.2L80.3,266.7L80.3,266.7L80.3,266.7z"/>
<path class="st0" d="M103.1,267.4l0.2,0l0.1,0.3l-0.1,0.2l-0.3-0.2L103.1,267.4L103.1,267.4L103.1,267.4z"/>
<path class="st0" d="M92.8,267.5H93l0.2,0.2L93,268l-0.3-0.2L92.8,267.5L92.8,267.5L92.8,267.5z"/>
<path class="st0" d="M106.6,268.3l0.2,0l0.1,0.1l-0.2,0.3h-0.1l-0.2-0.3L106.6,268.3L106.6,268.3L106.6,268.3z"/>
<path class="st0" d="M80.5,268.5h0.1l0,0.1l-0.1,0.1l0,0L80.5,268.5L80.5,268.5L80.5,268.5z"/>
<path class="st0" d="M83,269.2l0.3,0.2l-0.2,0.3l-0.3-0.1l-0.1-0.2L83,269.2L83,269.2z"/>
<path class="st0" d="M84.2,269.9l0.2,0.2l0,0.2h-0.5l0-0.2L84.2,269.9L84.2,269.9L84.2,269.9z"/>
<path class="st0" d="M104.9,270.9l0.2,0l0.1,0.3l-0.2,0.2l-0.3-0.2L104.9,270.9L104.9,270.9L104.9,270.9z"/>
<path class="st0" d="M83.1,271.6l0.2,0.3l-0.2,0.2l-0.3-0.3l0.1-0.2l-0.2-0.2l0.5-0.2l0,0.2L83.1,271.6L83.1,271.6L83.1,271.6z"/>
<path class="st0" d="M107.4,271.4l0.2,0.2l0,0.2l-0.3,0.2l-0.2-0.2L107.4,271.4L107.4,271.4L107.4,271.4L107.4,271.4z"/>
<path class="st0" d="M106.7,273.7l0.3,0.2l-0.2,0.3l-0.3-0.3L106.7,273.7L106.7,273.7L106.7,273.7z"/>
<path class="st0" d="M86.2,274.3l0.2,0l0.1,0.1l-0.2,0.3l-0.2,0l-0.2-0.3L86.2,274.3L86.2,274.3L86.2,274.3z"/>
<path class="st0" d="M93.5,276.3l0.2,0l0.1,0.3l-0.1,0.2l-0.3-0.1l0-0.2L93.5,276.3L93.5,276.3L93.5,276.3z"/>
<path class="st0" d="M89.3,276.4l0.1,0l0.2,0.4l-0.2,0.2l-0.1,0l-0.2-0.4L89.3,276.4L89.3,276.4z"/>
<path class="st0" d="M91.3,277.2l0.3,0.1l0.1,0.3l-0.2,0.2h-0.2L91.3,277.2L91.3,277.2L91.3,277.2z"/>
<path class="st0" d="M98.8,277.4l0.3,0l-0.1,0.5l-0.2,0l-0.1-0.1L98.8,277.4L98.8,277.4L98.8,277.4z"/>
<path class="st0" d="M96,278l0.3,0.2l-0.1,0.3l-0.4-0.3L96,278L96,278L96,278z"/>
<path class="st0" d="M97.6,279.2l0.2,0.1l-0.3,0.4l-0.2-0.2L97.6,279.2L97.6,279.2L97.6,279.2L97.6,279.2z"/>
<path class="st0" d="M100.3,280.5l0.2,0l0.1,0.2l-0.2,0.3l-0.3-0.1l0-0.2L100.3,280.5L100.3,280.5z"/>
<path class="st0" d="M98.8,280.9l0.2,0l0.1,0.4l-0.2,0.1l-0.3-0.2L98.8,280.9L98.8,280.9z"/>
<path class="st0" d="M100.4,282.1l0.3,0.2l0,0.3l-0.3,0.1l-0.2-0.3L100.4,282.1L100.4,282.1L100.4,282.1z"/>
<path class="st0" d="M101.3,282.2l0.2,0l0.1,0.3l-0.2,0.2l-0.3-0.2L101.3,282.2L101.3,282.2L101.3,282.2z"/>
</svg>
